<svg width="64" height="64" viewBox="0 0 64 64" fill="none" xmlns="http://www.w3.org/2000/svg">
<path fill-rule="evenodd" clip-rule="evenodd" d="M30.125 4.07079C29.9531 4.10004 29.3062 4.18554 28.6875 4.26066C17.776 5.58479 9.10762 12.4483 5.70187 22.4602C4.56549 25.8005 4.18774 28.1809 4.18774 31.9998C4.18774 35.8187 4.56549 38.199 5.70187 41.5394C9.41887 52.4663 19.298 59.5202 31.5 59.9597C35.846 60.1162 39.9914 59.2264 44.0625 57.2629C47.199 55.7503 49.4749 54.1447 51.8331 51.7805C56.3569 47.2455 59.1457 41.3924 59.8836 34.8847C59.9742 34.0855 60.0064 32.6602 59.9667 31.1972C59.896 28.5884 59.633 26.7497 59.0087 24.4998C58.289 21.9054 56.9289 18.8323 56.3589 18.5124C55.751 18.1712 54.875 18.6709 54.875 19.3587C54.875 19.5562 55.1536 20.3014 55.4942 21.0149C57.2711 24.7374 58.1939 29.4942 57.8704 33.263C57.3929 38.8237 55.7614 43.5272 52.9244 47.5213C51.9757 48.8569 49.1149 51.7489 47.7555 52.7463C44.1616 55.3834 40.0464 56.9915 35.25 57.633C33.7401 57.835 29.9499 57.8048 28.375 57.5783C23.3725 56.8587 18.9399 54.9737 15.346 52.0377C14.1454 51.0568 11.9392 48.7189 11.0739 47.5105C8.22874 43.5375 6.58987 38.7883 6.12037 33.156C5.78774 29.1649 6.67162 24.6894 8.55812 20.8123C13.7069 10.2308 25.7607 4.20954 37.1875 6.51104C38.9025 6.85641 41.4694 7.72979 43.0062 8.49079C43.7104 8.83954 44.4471 9.12479 44.6432 9.12479C45.3324 9.12479 45.8279 8.24766 45.4844 7.63566C44.9864 6.74829 40.1527 4.96779 36.4375 4.30304C35.3685 4.11179 30.8567 3.94566 30.125 4.07079ZM47.4529 9.48691L43.4601 13.4739L43.6564 16.0807L43.8526 18.6873L37.4264 25.1275C31.562 31.0047 31 31.6037 31 31.977C31 32.5259 31.4739 32.9998 32.0227 32.9998C32.3961 32.9998 32.9951 32.4378 38.8722 26.5734L45.3125 20.1472L47.9191 20.3434L50.5259 20.5397L54.5129 16.5469C58.8297 12.224 58.8106 12.2499 58.2031 11.5435C57.9109 11.2038 57.8689 11.1954 55.5382 11.0139L53.1702 10.8295L52.9859 8.46154C52.8044 6.13091 52.796 6.08891 52.4562 5.79666C51.7499 5.18916 51.7757 5.17004 47.4529 9.48691ZM48.2659 11.5457L45.5942 14.2202L45.7465 16.1413C45.8302 17.1978 45.9075 18.071 45.9181 18.0817C45.9287 18.0923 46.802 18.1695 47.8585 18.2533L49.7796 18.4055L52.4541 15.7339L55.1287 13.0623L53.7831 12.9747C51.9632 12.856 51.5262 12.7182 51.307 12.1935C51.2116 11.965 51.0894 11.124 51.0355 10.3245L50.9375 8.87104L48.2659 11.5457ZM29.8132 13.1434C22.6576 14.0599 16.9425 18.3383 14.4841 24.6192C13.4989 27.1364 13.1049 29.2448 13.1049 31.9998C13.1049 33.923 13.2636 35.2784 13.682 36.9279C15.7881 45.2307 22.7336 50.6445 31.6875 50.9628C33.2441 51.0182 33.8251 50.9845 35.1089 50.7647C43.2065 49.3784 49.3804 43.2043 50.7646 35.1087C51.1021 33.1348 51.0432 30.0174 50.6322 28.0999C50.1627 25.9093 48.8241 22.682 48.2595 22.3799C47.6049 22.0295 46.75 22.5094 46.75 23.2272C46.75 23.4272 46.9971 24.0907 47.2991 24.7015C47.9304 25.9784 48.5236 27.7697 48.7641 29.1248C49.0259 30.6002 48.9656 33.5568 48.6425 35.0858C47.8991 38.6037 46.2976 41.563 43.75 44.1267C41.3932 46.4983 38.457 48.0615 35.1477 48.7064C33.698 48.9889 30.7209 48.99 29.1595 48.7087C22.1564 47.4467 16.845 42.2599 15.3627 35.2357C15.006 33.545 14.9721 30.4844 15.2921 28.852C16.6172 22.0922 21.9184 16.84 28.914 15.3563C29.8965 15.1478 30.6302 15.085 32.125 15.0812C34.9524 15.0739 36.8847 15.5105 39.2982 16.7017C39.9091 17.0032 40.5575 17.2498 40.7391 17.2498C41.4535 17.2498 41.9024 16.5419 41.6346 15.8374C41.5414 15.5924 41.213 15.3582 40.3662 14.9329C37.199 13.3423 33.3529 12.69 29.8132 13.1434ZM29.953 22.196C25.5787 23.1769 22.6605 26.37 22.1027 30.7857C21.5144 35.4443 24.22 39.9013 28.5382 41.3868C33.5209 43.1008 38.658 41.0543 40.9735 36.4329C41.75 34.8832 41.9377 34.0053 41.9351 31.9373C41.9322 29.7833 41.7247 28.8197 41.1695 28.383C40.7247 28.0332 40.1861 28.0524 39.8069 28.4317C39.4731 28.7653 39.4307 29.077 39.6276 29.7507C40.2552 31.8979 39.8982 34.357 38.6712 36.3388C36.5839 39.7103 31.8382 40.8799 28.1371 38.935C25.8735 37.7455 24.4924 35.6552 24.1232 32.8602C23.5909 28.8299 26.5279 24.9069 30.625 24.1755C31.7707 23.9709 32.8086 24.0155 34.018 24.3214C34.9871 24.5664 35.2135 24.5477 35.5681 24.1929C36.2191 23.542 35.8121 22.6445 34.7119 22.305C33.7626 22.012 31.0504 21.95 29.953 22.196Z" fill="#EC3237"/>
</svg>
