<svg width="19" height="19" viewBox="0 0 19 19" fill="none" xmlns="http://www.w3.org/2000/svg">
<path d="M9.10887 2.02376C11.5099 2.02376 11.7947 2.03296 12.7427 2.0774C13.7229 2.12337 14.7323 2.3517 15.4464 3.08191C16.1674 3.81902 16.3839 4.84116 16.4289 5.84645C16.4724 6.81572 16.4814 7.10688 16.4814 9.56186C16.4814 12.0168 16.4724 12.308 16.4289 13.2773C16.3847 14.2741 16.1561 15.3162 15.4464 16.0418C14.7255 16.7789 13.7266 17.0003 12.7427 17.0463C11.7947 17.0908 11.5099 17.1 9.10887 17.1C6.70783 17.1 6.42306 17.0908 5.47509 17.0463C4.50763 17.0011 3.47497 16.7621 2.77129 16.0418C2.05413 15.3085 1.83381 14.2764 1.78885 13.2773C1.74538 12.308 1.73639 12.0168 1.73639 9.56186C1.73639 7.10688 1.74538 6.81572 1.78885 5.84645C1.83306 4.85342 2.06387 3.80523 2.77129 3.08191C3.49071 2.34634 4.49414 2.12337 5.47509 2.0774C6.42306 2.03296 6.70783 2.02376 9.10887 2.02376ZM9.10887 0.367188C6.66661 0.367188 6.36011 0.377915 5.4009 0.422356C4.01078 0.487484 2.63041 0.882855 1.62548 1.91036C0.616802 2.9417 0.233865 4.35001 0.170167 5.77059C0.126702 6.75136 0.116211 7.06474 0.116211 9.56186C0.116211 12.059 0.126702 12.3724 0.170167 13.3531C0.233865 14.7729 0.622048 16.1882 1.62548 17.2134C2.63341 18.2439 4.01303 18.6362 5.4009 18.7014C6.36011 18.7458 6.66661 18.7565 9.10887 18.7565C11.5511 18.7565 11.8576 18.7458 12.8168 18.7014C14.2062 18.6362 15.5881 18.2401 16.5923 17.2134C17.6017 16.1813 17.9839 14.7737 18.0476 13.3531C18.091 12.3724 18.1015 12.059 18.1015 9.56186C18.1015 7.06474 18.091 6.75136 18.0476 5.77059C17.9839 4.34925 17.5964 2.9371 16.5923 1.91036C15.5858 0.881323 14.2025 0.486718 12.8168 0.422356C11.8576 0.377915 11.5511 0.367188 9.10887 0.367188Z" fill="white"/>
<path d="M9.10894 4.83984C6.55877 4.83984 4.49121 6.95385 4.49121 9.56131C4.49121 12.1688 6.55877 14.2828 9.10894 14.2828C11.6591 14.2828 13.7267 12.1688 13.7267 9.56131C13.7267 6.95385 11.6591 4.83984 9.10894 4.83984ZM9.10894 12.6262C7.45354 12.6262 6.11139 11.2539 6.11139 9.56131C6.11139 7.86872 7.45354 6.49642 9.10894 6.49642C10.7643 6.49642 12.1065 7.86872 12.1065 9.56131C12.1065 11.2539 10.7643 12.6262 9.10894 12.6262Z" fill="white"/>
<path d="M13.9092 5.75653C14.5052 5.75653 14.9883 5.26253 14.9883 4.65317C14.9883 4.0438 14.5052 3.5498 13.9092 3.5498C13.3132 3.5498 12.8301 4.0438 12.8301 4.65317C12.8301 5.26253 13.3132 5.75653 13.9092 5.75653Z" fill="white"/>
</svg>
