<svg width="429" height="431" viewBox="0 0 429 431" fill="none" xmlns="http://www.w3.org/2000/svg">
<ellipse cx="2.01923" cy="2.03004" rx="2.01923" ry="2.03004" fill="#3E4095"/>
<ellipse cx="22.2116" cy="2.03004" rx="2.01923" ry="2.03004" fill="#3E4095"/>
<ellipse cx="42.4035" cy="2.03004" rx="2.01923" ry="2.03004" fill="#3E4095"/>
<ellipse cx="62.5959" cy="2.03004" rx="2.01923" ry="2.03004" fill="#3E4095"/>
<ellipse cx="82.7883" cy="2.03004" rx="2.01923" ry="2.03004" fill="#3E4095"/>
<ellipse cx="102.981" cy="2.03004" rx="2.01923" ry="2.03004" fill="#3E4095"/>
<ellipse cx="123.173" cy="2.03004" rx="2.01923" ry="2.03004" fill="#3E4095"/>
<ellipse cx="143.366" cy="2.03004" rx="2.01923" ry="2.03004" fill="#3E4095"/>
<ellipse cx="163.557" cy="2.03004" rx="2.01923" ry="2.03004" fill="#3E4095"/>
<ellipse cx="183.75" cy="2.03004" rx="2.01923" ry="2.03004" fill="#3E4095"/>
<ellipse cx="203.943" cy="2.03004" rx="2.01923" ry="2.03004" fill="#3E4095"/>
<ellipse cx="224.135" cy="2.03004" rx="2.01923" ry="2.03004" fill="#3E4095"/>
<ellipse cx="244.328" cy="2.03004" rx="2.01923" ry="2.03004" fill="#3E4095"/>
<ellipse cx="264.52" cy="2.03004" rx="2.01923" ry="2.03004" fill="#3E4095"/>
<ellipse cx="284.712" cy="2.03004" rx="2.01923" ry="2.03004" fill="#3E4095"/>
<ellipse cx="304.904" cy="2.03004" rx="2.01923" ry="2.03004" fill="#3E4095"/>
<ellipse cx="325.096" cy="2.03004" rx="2.01923" ry="2.03004" fill="#3E4095"/>
<ellipse cx="345.288" cy="2.03004" rx="2.01923" ry="2.03004" fill="#3E4095"/>
<ellipse cx="365.481" cy="2.03004" rx="2.01923" ry="2.03004" fill="#3E4095"/>
<ellipse cx="385.673" cy="2.03004" rx="2.01923" ry="2.03004" fill="#3E4095"/>
<ellipse cx="405.866" cy="2.03004" rx="2.01923" ry="2.03004" fill="#3E4095"/>
<ellipse cx="426.057" cy="2.03004" rx="2.01923" ry="2.03004" fill="#3E4095"/>
<ellipse cx="2.01923" cy="22.3308" rx="2.01923" ry="2.03004" fill="#3E4095"/>
<ellipse cx="22.2116" cy="22.3308" rx="2.01923" ry="2.03004" fill="#3E4095"/>
<ellipse cx="42.4035" cy="22.3308" rx="2.01923" ry="2.03004" fill="#3E4095"/>
<ellipse cx="62.5959" cy="22.3308" rx="2.01923" ry="2.03004" fill="#3E4095"/>
<ellipse cx="82.7883" cy="22.3308" rx="2.01923" ry="2.03004" fill="#3E4095"/>
<ellipse cx="102.981" cy="22.3308" rx="2.01923" ry="2.03004" fill="#3E4095"/>
<ellipse cx="123.173" cy="22.3308" rx="2.01923" ry="2.03004" fill="#3E4095"/>
<ellipse cx="143.366" cy="22.3308" rx="2.01923" ry="2.03004" fill="#3E4095"/>
<ellipse cx="163.557" cy="22.3308" rx="2.01923" ry="2.03004" fill="#3E4095"/>
<ellipse cx="183.75" cy="22.3308" rx="2.01923" ry="2.03004" fill="#3E4095"/>
<ellipse cx="203.943" cy="22.3308" rx="2.01923" ry="2.03004" fill="#3E4095"/>
<ellipse cx="224.135" cy="22.3308" rx="2.01923" ry="2.03004" fill="#3E4095"/>
<ellipse cx="244.328" cy="22.3308" rx="2.01923" ry="2.03004" fill="#3E4095"/>
<ellipse cx="264.52" cy="22.3308" rx="2.01923" ry="2.03004" fill="#3E4095"/>
<ellipse cx="284.712" cy="22.3308" rx="2.01923" ry="2.03004" fill="#3E4095"/>
<ellipse cx="304.904" cy="22.3308" rx="2.01923" ry="2.03004" fill="#3E4095"/>
<ellipse cx="325.096" cy="22.3308" rx="2.01923" ry="2.03004" fill="#3E4095"/>
<ellipse cx="345.288" cy="22.3308" rx="2.01923" ry="2.03004" fill="#3E4095"/>
<ellipse cx="365.481" cy="22.3308" rx="2.01923" ry="2.03004" fill="#3E4095"/>
<ellipse cx="385.673" cy="22.3308" rx="2.01923" ry="2.03004" fill="#3E4095"/>
<ellipse cx="405.866" cy="22.3308" rx="2.01923" ry="2.03004" fill="#3E4095"/>
<ellipse cx="426.057" cy="22.3308" rx="2.01923" ry="2.03004" fill="#3E4095"/>
<ellipse cx="2.01923" cy="42.6306" rx="2.01923" ry="2.03004" fill="#3E4095"/>
<ellipse cx="22.2116" cy="42.6306" rx="2.01923" ry="2.03004" fill="#3E4095"/>
<ellipse cx="42.4035" cy="42.6306" rx="2.01923" ry="2.03004" fill="#3E4095"/>
<ellipse cx="62.5959" cy="42.6306" rx="2.01923" ry="2.03004" fill="#3E4095"/>
<ellipse cx="82.7883" cy="42.6306" rx="2.01923" ry="2.03004" fill="#3E4095"/>
<ellipse cx="102.981" cy="42.6306" rx="2.01923" ry="2.03004" fill="#3E4095"/>
<ellipse cx="123.173" cy="42.6306" rx="2.01923" ry="2.03004" fill="#3E4095"/>
<ellipse cx="143.366" cy="42.6306" rx="2.01923" ry="2.03004" fill="#3E4095"/>
<ellipse cx="163.557" cy="42.6306" rx="2.01923" ry="2.03004" fill="#3E4095"/>
<ellipse cx="183.75" cy="42.6306" rx="2.01923" ry="2.03004" fill="#3E4095"/>
<ellipse cx="203.943" cy="42.6306" rx="2.01923" ry="2.03004" fill="#3E4095"/>
<ellipse cx="224.135" cy="42.6306" rx="2.01923" ry="2.03004" fill="#3E4095"/>
<ellipse cx="244.328" cy="42.6306" rx="2.01923" ry="2.03004" fill="#3E4095"/>
<ellipse cx="264.52" cy="42.6306" rx="2.01923" ry="2.03004" fill="#3E4095"/>
<ellipse cx="284.712" cy="42.6306" rx="2.01923" ry="2.03004" fill="#3E4095"/>
<ellipse cx="304.904" cy="42.6306" rx="2.01923" ry="2.03004" fill="#3E4095"/>
<ellipse cx="325.096" cy="42.6306" rx="2.01923" ry="2.03004" fill="#3E4095"/>
<ellipse cx="345.288" cy="42.6306" rx="2.01923" ry="2.03004" fill="#3E4095"/>
<ellipse cx="365.481" cy="42.6306" rx="2.01923" ry="2.03004" fill="#3E4095"/>
<ellipse cx="385.673" cy="42.6306" rx="2.01923" ry="2.03004" fill="#3E4095"/>
<ellipse cx="405.866" cy="42.6306" rx="2.01923" ry="2.03004" fill="#3E4095"/>
<ellipse cx="426.057" cy="42.6306" rx="2.01923" ry="2.03004" fill="#3E4095"/>
<ellipse cx="2.01923" cy="62.9314" rx="2.01923" ry="2.03004" fill="#3E4095"/>
<ellipse cx="22.2116" cy="62.9314" rx="2.01923" ry="2.03004" fill="#3E4095"/>
<ellipse cx="42.4035" cy="62.9314" rx="2.01923" ry="2.03004" fill="#3E4095"/>
<ellipse cx="62.5959" cy="62.9314" rx="2.01923" ry="2.03004" fill="#3E4095"/>
<ellipse cx="82.7883" cy="62.9314" rx="2.01923" ry="2.03004" fill="#3E4095"/>
<ellipse cx="102.981" cy="62.9314" rx="2.01923" ry="2.03004" fill="#3E4095"/>
<ellipse cx="123.173" cy="62.9314" rx="2.01923" ry="2.03004" fill="#3E4095"/>
<ellipse cx="143.366" cy="62.9314" rx="2.01923" ry="2.03004" fill="#3E4095"/>
<ellipse cx="163.557" cy="62.9314" rx="2.01923" ry="2.03004" fill="#3E4095"/>
<ellipse cx="183.75" cy="62.9314" rx="2.01923" ry="2.03004" fill="#3E4095"/>
<ellipse cx="203.943" cy="62.9314" rx="2.01923" ry="2.03004" fill="#3E4095"/>
<ellipse cx="224.135" cy="62.9314" rx="2.01923" ry="2.03004" fill="#3E4095"/>
<ellipse cx="244.328" cy="62.9314" rx="2.01923" ry="2.03004" fill="#3E4095"/>
<ellipse cx="264.52" cy="62.9314" rx="2.01923" ry="2.03004" fill="#3E4095"/>
<ellipse cx="284.712" cy="62.9314" rx="2.01923" ry="2.03004" fill="#3E4095"/>
<ellipse cx="304.904" cy="62.9314" rx="2.01923" ry="2.03004" fill="#3E4095"/>
<ellipse cx="325.096" cy="62.9314" rx="2.01923" ry="2.03004" fill="#3E4095"/>
<ellipse cx="345.288" cy="62.9314" rx="2.01923" ry="2.03004" fill="#3E4095"/>
<ellipse cx="365.481" cy="62.9314" rx="2.01923" ry="2.03004" fill="#3E4095"/>
<ellipse cx="385.673" cy="62.9314" rx="2.01923" ry="2.03004" fill="#3E4095"/>
<ellipse cx="405.866" cy="62.9314" rx="2.01923" ry="2.03004" fill="#3E4095"/>
<ellipse cx="426.057" cy="62.9314" rx="2.01923" ry="2.03004" fill="#3E4095"/>
<ellipse cx="2.01923" cy="83.2312" rx="2.01923" ry="2.03004" fill="#3E4095"/>
<ellipse cx="22.2116" cy="83.2312" rx="2.01923" ry="2.03004" fill="#3E4095"/>
<ellipse cx="42.4035" cy="83.2312" rx="2.01923" ry="2.03004" fill="#3E4095"/>
<ellipse cx="62.5959" cy="83.2312" rx="2.01923" ry="2.03004" fill="#3E4095"/>
<ellipse cx="82.7883" cy="83.2312" rx="2.01923" ry="2.03004" fill="#3E4095"/>
<ellipse cx="102.981" cy="83.2312" rx="2.01923" ry="2.03004" fill="#3E4095"/>
<ellipse cx="123.173" cy="83.2312" rx="2.01923" ry="2.03004" fill="#3E4095"/>
<ellipse cx="143.366" cy="83.2312" rx="2.01923" ry="2.03004" fill="#3E4095"/>
<ellipse cx="163.557" cy="83.2312" rx="2.01923" ry="2.03004" fill="#3E4095"/>
<ellipse cx="183.75" cy="83.2312" rx="2.01923" ry="2.03004" fill="#3E4095"/>
<ellipse cx="203.943" cy="83.2312" rx="2.01923" ry="2.03004" fill="#3E4095"/>
<ellipse cx="224.135" cy="83.2312" rx="2.01923" ry="2.03004" fill="#3E4095"/>
<ellipse cx="244.328" cy="83.2312" rx="2.01923" ry="2.03004" fill="#3E4095"/>
<ellipse cx="264.52" cy="83.2312" rx="2.01923" ry="2.03004" fill="#3E4095"/>
<ellipse cx="284.712" cy="83.2312" rx="2.01923" ry="2.03004" fill="#3E4095"/>
<ellipse cx="304.904" cy="83.2312" rx="2.01923" ry="2.03004" fill="#3E4095"/>
<ellipse cx="325.096" cy="83.2312" rx="2.01923" ry="2.03004" fill="#3E4095"/>
<ellipse cx="345.288" cy="83.2312" rx="2.01923" ry="2.03004" fill="#3E4095"/>
<ellipse cx="365.481" cy="83.2312" rx="2.01923" ry="2.03004" fill="#3E4095"/>
<ellipse cx="385.673" cy="83.2312" rx="2.01923" ry="2.03004" fill="#3E4095"/>
<ellipse cx="405.866" cy="83.2312" rx="2.01923" ry="2.03004" fill="#3E4095"/>
<ellipse cx="426.057" cy="83.2312" rx="2.01923" ry="2.03004" fill="#3E4095"/>
<ellipse cx="2.01923" cy="103.532" rx="2.01923" ry="2.03004" fill="#3E4095"/>
<ellipse cx="22.2116" cy="103.532" rx="2.01923" ry="2.03004" fill="#3E4095"/>
<ellipse cx="42.4035" cy="103.532" rx="2.01923" ry="2.03004" fill="#3E4095"/>
<ellipse cx="62.5959" cy="103.532" rx="2.01923" ry="2.03004" fill="#3E4095"/>
<ellipse cx="82.7883" cy="103.532" rx="2.01923" ry="2.03004" fill="#3E4095"/>
<ellipse cx="102.981" cy="103.532" rx="2.01923" ry="2.03004" fill="#3E4095"/>
<ellipse cx="123.173" cy="103.532" rx="2.01923" ry="2.03004" fill="#3E4095"/>
<ellipse cx="143.366" cy="103.532" rx="2.01923" ry="2.03004" fill="#3E4095"/>
<ellipse cx="163.557" cy="103.532" rx="2.01923" ry="2.03004" fill="#3E4095"/>
<ellipse cx="183.75" cy="103.532" rx="2.01923" ry="2.03004" fill="#3E4095"/>
<ellipse cx="203.943" cy="103.532" rx="2.01923" ry="2.03004" fill="#3E4095"/>
<ellipse cx="224.135" cy="103.532" rx="2.01923" ry="2.03004" fill="#3E4095"/>
<ellipse cx="244.328" cy="103.532" rx="2.01923" ry="2.03004" fill="#3E4095"/>
<ellipse cx="264.52" cy="103.532" rx="2.01923" ry="2.03004" fill="#3E4095"/>
<ellipse cx="284.712" cy="103.532" rx="2.01923" ry="2.03004" fill="#3E4095"/>
<ellipse cx="304.904" cy="103.532" rx="2.01923" ry="2.03004" fill="#3E4095"/>
<ellipse cx="325.096" cy="103.532" rx="2.01923" ry="2.03004" fill="#3E4095"/>
<ellipse cx="345.288" cy="103.532" rx="2.01923" ry="2.03004" fill="#3E4095"/>
<ellipse cx="365.481" cy="103.532" rx="2.01923" ry="2.03004" fill="#3E4095"/>
<ellipse cx="385.673" cy="103.532" rx="2.01923" ry="2.03004" fill="#3E4095"/>
<ellipse cx="405.866" cy="103.532" rx="2.01923" ry="2.03004" fill="#3E4095"/>
<ellipse cx="426.057" cy="103.532" rx="2.01923" ry="2.03004" fill="#3E4095"/>
<ellipse cx="2.01923" cy="123.833" rx="2.01923" ry="2.03004" fill="#3E4095"/>
<ellipse cx="22.2116" cy="123.833" rx="2.01923" ry="2.03004" fill="#3E4095"/>
<ellipse cx="42.4035" cy="123.833" rx="2.01923" ry="2.03004" fill="#3E4095"/>
<ellipse cx="62.5959" cy="123.833" rx="2.01923" ry="2.03004" fill="#3E4095"/>
<ellipse cx="82.7883" cy="123.833" rx="2.01923" ry="2.03004" fill="#3E4095"/>
<ellipse cx="102.981" cy="123.833" rx="2.01923" ry="2.03004" fill="#3E4095"/>
<ellipse cx="123.173" cy="123.833" rx="2.01923" ry="2.03004" fill="#3E4095"/>
<ellipse cx="143.366" cy="123.833" rx="2.01923" ry="2.03004" fill="#3E4095"/>
<ellipse cx="163.557" cy="123.833" rx="2.01923" ry="2.03004" fill="#3E4095"/>
<ellipse cx="183.75" cy="123.833" rx="2.01923" ry="2.03004" fill="#3E4095"/>
<ellipse cx="203.943" cy="123.833" rx="2.01923" ry="2.03004" fill="#3E4095"/>
<ellipse cx="224.135" cy="123.833" rx="2.01923" ry="2.03004" fill="#3E4095"/>
<ellipse cx="244.328" cy="123.833" rx="2.01923" ry="2.03004" fill="#3E4095"/>
<ellipse cx="264.52" cy="123.833" rx="2.01923" ry="2.03004" fill="#3E4095"/>
<ellipse cx="284.712" cy="123.833" rx="2.01923" ry="2.03004" fill="#3E4095"/>
<ellipse cx="304.904" cy="123.833" rx="2.01923" ry="2.03004" fill="#3E4095"/>
<ellipse cx="325.096" cy="123.833" rx="2.01923" ry="2.03004" fill="#3E4095"/>
<ellipse cx="345.288" cy="123.833" rx="2.01923" ry="2.03004" fill="#3E4095"/>
<ellipse cx="365.481" cy="123.833" rx="2.01923" ry="2.03004" fill="#3E4095"/>
<ellipse cx="385.673" cy="123.833" rx="2.01923" ry="2.03004" fill="#3E4095"/>
<ellipse cx="405.866" cy="123.833" rx="2.01923" ry="2.03004" fill="#3E4095"/>
<ellipse cx="426.057" cy="123.833" rx="2.01923" ry="2.03004" fill="#3E4095"/>
<ellipse cx="2.01923" cy="144.133" rx="2.01923" ry="2.03004" fill="#3E4095"/>
<ellipse cx="22.2116" cy="144.133" rx="2.01923" ry="2.03004" fill="#3E4095"/>
<ellipse cx="42.4035" cy="144.133" rx="2.01923" ry="2.03004" fill="#3E4095"/>
<ellipse cx="62.5959" cy="144.133" rx="2.01923" ry="2.03004" fill="#3E4095"/>
<ellipse cx="82.7883" cy="144.133" rx="2.01923" ry="2.03004" fill="#3E4095"/>
<ellipse cx="102.981" cy="144.133" rx="2.01923" ry="2.03004" fill="#3E4095"/>
<ellipse cx="123.173" cy="144.133" rx="2.01923" ry="2.03004" fill="#3E4095"/>
<ellipse cx="143.366" cy="144.133" rx="2.01923" ry="2.03004" fill="#3E4095"/>
<ellipse cx="163.557" cy="144.133" rx="2.01923" ry="2.03004" fill="#3E4095"/>
<ellipse cx="183.75" cy="144.133" rx="2.01923" ry="2.03004" fill="#3E4095"/>
<ellipse cx="203.943" cy="144.133" rx="2.01923" ry="2.03004" fill="#3E4095"/>
<ellipse cx="224.135" cy="144.133" rx="2.01923" ry="2.03004" fill="#3E4095"/>
<ellipse cx="244.328" cy="144.133" rx="2.01923" ry="2.03004" fill="#3E4095"/>
<ellipse cx="264.52" cy="144.133" rx="2.01923" ry="2.03004" fill="#3E4095"/>
<ellipse cx="284.712" cy="144.133" rx="2.01923" ry="2.03004" fill="#3E4095"/>
<ellipse cx="304.904" cy="144.133" rx="2.01923" ry="2.03004" fill="#3E4095"/>
<ellipse cx="325.096" cy="144.133" rx="2.01923" ry="2.03004" fill="#3E4095"/>
<ellipse cx="345.288" cy="144.133" rx="2.01923" ry="2.03004" fill="#3E4095"/>
<ellipse cx="365.481" cy="144.133" rx="2.01923" ry="2.03004" fill="#3E4095"/>
<ellipse cx="385.673" cy="144.133" rx="2.01923" ry="2.03004" fill="#3E4095"/>
<ellipse cx="405.866" cy="144.133" rx="2.01923" ry="2.03004" fill="#3E4095"/>
<ellipse cx="426.057" cy="144.133" rx="2.01923" ry="2.03004" fill="#3E4095"/>
<ellipse cx="2.01923" cy="164.432" rx="2.01923" ry="2.03004" fill="#3E4095"/>
<ellipse cx="22.2116" cy="164.432" rx="2.01923" ry="2.03004" fill="#3E4095"/>
<ellipse cx="42.4035" cy="164.432" rx="2.01923" ry="2.03004" fill="#3E4095"/>
<ellipse cx="62.5959" cy="164.432" rx="2.01923" ry="2.03004" fill="#3E4095"/>
<ellipse cx="82.7883" cy="164.432" rx="2.01923" ry="2.03004" fill="#3E4095"/>
<ellipse cx="102.981" cy="164.432" rx="2.01923" ry="2.03004" fill="#3E4095"/>
<ellipse cx="123.173" cy="164.432" rx="2.01923" ry="2.03004" fill="#3E4095"/>
<ellipse cx="143.366" cy="164.432" rx="2.01923" ry="2.03004" fill="#3E4095"/>
<ellipse cx="163.557" cy="164.432" rx="2.01923" ry="2.03004" fill="#3E4095"/>
<ellipse cx="183.75" cy="164.432" rx="2.01923" ry="2.03004" fill="#3E4095"/>
<ellipse cx="203.943" cy="164.432" rx="2.01923" ry="2.03004" fill="#3E4095"/>
<ellipse cx="224.135" cy="164.432" rx="2.01923" ry="2.03004" fill="#3E4095"/>
<ellipse cx="244.328" cy="164.432" rx="2.01923" ry="2.03004" fill="#3E4095"/>
<ellipse cx="264.52" cy="164.432" rx="2.01923" ry="2.03004" fill="#3E4095"/>
<ellipse cx="284.712" cy="164.432" rx="2.01923" ry="2.03004" fill="#3E4095"/>
<ellipse cx="304.904" cy="164.432" rx="2.01923" ry="2.03004" fill="#3E4095"/>
<ellipse cx="325.096" cy="164.432" rx="2.01923" ry="2.03004" fill="#3E4095"/>
<ellipse cx="345.288" cy="164.432" rx="2.01923" ry="2.03004" fill="#3E4095"/>
<ellipse cx="365.481" cy="164.432" rx="2.01923" ry="2.03004" fill="#3E4095"/>
<ellipse cx="385.673" cy="164.432" rx="2.01923" ry="2.03004" fill="#3E4095"/>
<ellipse cx="405.866" cy="164.432" rx="2.01923" ry="2.03004" fill="#3E4095"/>
<ellipse cx="426.057" cy="164.432" rx="2.01923" ry="2.03004" fill="#3E4095"/>
<ellipse cx="2.01923" cy="184.733" rx="2.01923" ry="2.03004" fill="#3E4095"/>
<ellipse cx="22.2116" cy="184.733" rx="2.01923" ry="2.03004" fill="#3E4095"/>
<ellipse cx="42.4035" cy="184.733" rx="2.01923" ry="2.03004" fill="#3E4095"/>
<ellipse cx="62.5964" cy="184.733" rx="2.01923" ry="2.03004" fill="#3E4095"/>
<ellipse cx="82.7883" cy="184.733" rx="2.01923" ry="2.03004" fill="#3E4095"/>
<ellipse cx="102.981" cy="184.733" rx="2.01923" ry="2.03004" fill="#3E4095"/>
<ellipse cx="123.173" cy="184.733" rx="2.01923" ry="2.03004" fill="#3E4095"/>
<ellipse cx="143.365" cy="184.733" rx="2.01923" ry="2.03004" fill="#3E4095"/>
<ellipse cx="163.557" cy="184.733" rx="2.01923" ry="2.03004" fill="#3E4095"/>
<ellipse cx="183.75" cy="184.733" rx="2.01923" ry="2.03004" fill="#3E4095"/>
<ellipse cx="203.943" cy="184.733" rx="2.01923" ry="2.03004" fill="#3E4095"/>
<ellipse cx="224.135" cy="184.733" rx="2.01923" ry="2.03004" fill="#3E4095"/>
<ellipse cx="244.328" cy="184.733" rx="2.01923" ry="2.03004" fill="#3E4095"/>
<ellipse cx="264.52" cy="184.733" rx="2.01923" ry="2.03004" fill="#3E4095"/>
<ellipse cx="284.712" cy="184.733" rx="2.01923" ry="2.03004" fill="#3E4095"/>
<ellipse cx="304.904" cy="184.733" rx="2.01923" ry="2.03004" fill="#3E4095"/>
<ellipse cx="325.096" cy="184.733" rx="2.01923" ry="2.03004" fill="#3E4095"/>
<ellipse cx="345.288" cy="184.733" rx="2.01923" ry="2.03004" fill="#3E4095"/>
<ellipse cx="365.481" cy="184.733" rx="2.01923" ry="2.03004" fill="#3E4095"/>
<ellipse cx="385.673" cy="184.733" rx="2.01923" ry="2.03004" fill="#3E4095"/>
<ellipse cx="405.866" cy="184.733" rx="2.01923" ry="2.03004" fill="#3E4095"/>
<ellipse cx="426.057" cy="184.733" rx="2.01923" ry="2.03004" fill="#3E4095"/>
<ellipse cx="2.01923" cy="205.033" rx="2.01923" ry="2.03004" fill="#3E4095"/>
<ellipse cx="22.2116" cy="205.033" rx="2.01923" ry="2.03004" fill="#3E4095"/>
<ellipse cx="42.4035" cy="205.033" rx="2.01923" ry="2.03004" fill="#3E4095"/>
<ellipse cx="62.5964" cy="205.033" rx="2.01923" ry="2.03004" fill="#3E4095"/>
<ellipse cx="82.7883" cy="205.033" rx="2.01923" ry="2.03004" fill="#3E4095"/>
<ellipse cx="102.981" cy="205.033" rx="2.01923" ry="2.03004" fill="#3E4095"/>
<ellipse cx="123.173" cy="205.033" rx="2.01923" ry="2.03004" fill="#3E4095"/>
<ellipse cx="143.365" cy="205.033" rx="2.01923" ry="2.03004" fill="#3E4095"/>
<ellipse cx="163.557" cy="205.033" rx="2.01923" ry="2.03004" fill="#3E4095"/>
<ellipse cx="183.75" cy="205.033" rx="2.01923" ry="2.03004" fill="#3E4095"/>
<ellipse cx="203.943" cy="205.033" rx="2.01923" ry="2.03004" fill="#3E4095"/>
<ellipse cx="224.135" cy="205.033" rx="2.01923" ry="2.03004" fill="#3E4095"/>
<ellipse cx="244.328" cy="205.033" rx="2.01923" ry="2.03004" fill="#3E4095"/>
<ellipse cx="264.52" cy="205.033" rx="2.01923" ry="2.03004" fill="#3E4095"/>
<ellipse cx="284.712" cy="205.033" rx="2.01923" ry="2.03004" fill="#3E4095"/>
<ellipse cx="304.904" cy="205.033" rx="2.01923" ry="2.03004" fill="#3E4095"/>
<ellipse cx="325.096" cy="205.033" rx="2.01923" ry="2.03004" fill="#3E4095"/>
<ellipse cx="345.288" cy="205.033" rx="2.01923" ry="2.03004" fill="#3E4095"/>
<ellipse cx="365.481" cy="205.033" rx="2.01923" ry="2.03004" fill="#3E4095"/>
<ellipse cx="385.673" cy="205.033" rx="2.01923" ry="2.03004" fill="#3E4095"/>
<ellipse cx="405.866" cy="205.033" rx="2.01923" ry="2.03004" fill="#3E4095"/>
<ellipse cx="426.057" cy="205.033" rx="2.01923" ry="2.03004" fill="#3E4095"/>
<ellipse cx="2.01923" cy="225.334" rx="2.01923" ry="2.03004" fill="#3E4095"/>
<ellipse cx="22.2116" cy="225.334" rx="2.01923" ry="2.03004" fill="#3E4095"/>
<ellipse cx="42.4035" cy="225.334" rx="2.01923" ry="2.03004" fill="#3E4095"/>
<ellipse cx="62.5959" cy="225.334" rx="2.01923" ry="2.03004" fill="#3E4095"/>
<ellipse cx="82.7883" cy="225.334" rx="2.01923" ry="2.03004" fill="#3E4095"/>
<ellipse cx="102.981" cy="225.334" rx="2.01923" ry="2.03004" fill="#3E4095"/>
<ellipse cx="123.173" cy="225.334" rx="2.01923" ry="2.03004" fill="#3E4095"/>
<ellipse cx="143.366" cy="225.334" rx="2.01923" ry="2.03004" fill="#3E4095"/>
<ellipse cx="163.557" cy="225.334" rx="2.01923" ry="2.03004" fill="#3E4095"/>
<ellipse cx="183.75" cy="225.334" rx="2.01923" ry="2.03004" fill="#3E4095"/>
<ellipse cx="203.943" cy="225.334" rx="2.01923" ry="2.03004" fill="#3E4095"/>
<ellipse cx="224.135" cy="225.334" rx="2.01923" ry="2.03004" fill="#3E4095"/>
<ellipse cx="244.328" cy="225.334" rx="2.01923" ry="2.03004" fill="#3E4095"/>
<ellipse cx="264.52" cy="225.334" rx="2.01923" ry="2.03004" fill="#3E4095"/>
<ellipse cx="284.712" cy="225.334" rx="2.01923" ry="2.03004" fill="#3E4095"/>
<ellipse cx="304.904" cy="225.334" rx="2.01923" ry="2.03004" fill="#3E4095"/>
<ellipse cx="325.096" cy="225.334" rx="2.01923" ry="2.03004" fill="#3E4095"/>
<ellipse cx="345.288" cy="225.334" rx="2.01923" ry="2.03004" fill="#3E4095"/>
<ellipse cx="365.481" cy="225.334" rx="2.01923" ry="2.03004" fill="#3E4095"/>
<ellipse cx="385.673" cy="225.334" rx="2.01923" ry="2.03004" fill="#3E4095"/>
<ellipse cx="405.866" cy="225.334" rx="2.01923" ry="2.03004" fill="#3E4095"/>
<ellipse cx="426.057" cy="225.334" rx="2.01923" ry="2.03004" fill="#3E4095"/>
<ellipse cx="2.01923" cy="245.635" rx="2.01923" ry="2.03004" fill="#3E4095"/>
<ellipse cx="22.2116" cy="245.635" rx="2.01923" ry="2.03004" fill="#3E4095"/>
<ellipse cx="42.4035" cy="245.635" rx="2.01923" ry="2.03004" fill="#3E4095"/>
<ellipse cx="62.5959" cy="245.635" rx="2.01923" ry="2.03004" fill="#3E4095"/>
<ellipse cx="82.7883" cy="245.635" rx="2.01923" ry="2.03004" fill="#3E4095"/>
<ellipse cx="102.981" cy="245.635" rx="2.01923" ry="2.03004" fill="#3E4095"/>
<ellipse cx="123.173" cy="245.635" rx="2.01923" ry="2.03004" fill="#3E4095"/>
<ellipse cx="143.366" cy="245.635" rx="2.01923" ry="2.03004" fill="#3E4095"/>
<ellipse cx="163.557" cy="245.635" rx="2.01923" ry="2.03004" fill="#3E4095"/>
<ellipse cx="183.75" cy="245.635" rx="2.01923" ry="2.03004" fill="#3E4095"/>
<ellipse cx="203.943" cy="245.635" rx="2.01923" ry="2.03004" fill="#3E4095"/>
<ellipse cx="224.135" cy="245.635" rx="2.01923" ry="2.03004" fill="#3E4095"/>
<ellipse cx="244.328" cy="245.635" rx="2.01923" ry="2.03004" fill="#3E4095"/>
<ellipse cx="264.52" cy="245.635" rx="2.01923" ry="2.03004" fill="#3E4095"/>
<ellipse cx="284.712" cy="245.635" rx="2.01923" ry="2.03004" fill="#3E4095"/>
<ellipse cx="304.904" cy="245.635" rx="2.01923" ry="2.03004" fill="#3E4095"/>
<ellipse cx="325.096" cy="245.635" rx="2.01923" ry="2.03004" fill="#3E4095"/>
<ellipse cx="345.288" cy="245.635" rx="2.01923" ry="2.03004" fill="#3E4095"/>
<ellipse cx="365.481" cy="245.635" rx="2.01923" ry="2.03004" fill="#3E4095"/>
<ellipse cx="385.673" cy="245.635" rx="2.01923" ry="2.03004" fill="#3E4095"/>
<ellipse cx="405.866" cy="245.635" rx="2.01923" ry="2.03004" fill="#3E4095"/>
<ellipse cx="426.057" cy="245.635" rx="2.01923" ry="2.03004" fill="#3E4095"/>
<ellipse cx="2.01923" cy="265.934" rx="2.01923" ry="2.03004" fill="#3E4095"/>
<ellipse cx="22.2116" cy="265.934" rx="2.01923" ry="2.03004" fill="#3E4095"/>
<ellipse cx="42.4035" cy="265.934" rx="2.01923" ry="2.03004" fill="#3E4095"/>
<ellipse cx="62.5959" cy="265.934" rx="2.01923" ry="2.03004" fill="#3E4095"/>
<ellipse cx="82.7883" cy="265.934" rx="2.01923" ry="2.03004" fill="#3E4095"/>
<ellipse cx="102.981" cy="265.934" rx="2.01923" ry="2.03004" fill="#3E4095"/>
<ellipse cx="123.173" cy="265.934" rx="2.01923" ry="2.03004" fill="#3E4095"/>
<ellipse cx="143.366" cy="265.934" rx="2.01923" ry="2.03004" fill="#3E4095"/>
<ellipse cx="163.557" cy="265.934" rx="2.01923" ry="2.03004" fill="#3E4095"/>
<ellipse cx="183.75" cy="265.934" rx="2.01923" ry="2.03004" fill="#3E4095"/>
<ellipse cx="203.943" cy="265.934" rx="2.01923" ry="2.03004" fill="#3E4095"/>
<ellipse cx="224.135" cy="265.934" rx="2.01923" ry="2.03004" fill="#3E4095"/>
<ellipse cx="244.328" cy="265.934" rx="2.01923" ry="2.03004" fill="#3E4095"/>
<ellipse cx="264.52" cy="265.934" rx="2.01923" ry="2.03004" fill="#3E4095"/>
<ellipse cx="284.712" cy="265.934" rx="2.01923" ry="2.03004" fill="#3E4095"/>
<ellipse cx="304.904" cy="265.934" rx="2.01923" ry="2.03004" fill="#3E4095"/>
<ellipse cx="325.096" cy="265.934" rx="2.01923" ry="2.03004" fill="#3E4095"/>
<ellipse cx="345.288" cy="265.934" rx="2.01923" ry="2.03004" fill="#3E4095"/>
<ellipse cx="365.481" cy="265.934" rx="2.01923" ry="2.03004" fill="#3E4095"/>
<ellipse cx="385.673" cy="265.934" rx="2.01923" ry="2.03004" fill="#3E4095"/>
<ellipse cx="405.866" cy="265.934" rx="2.01923" ry="2.03004" fill="#3E4095"/>
<ellipse cx="426.057" cy="265.934" rx="2.01923" ry="2.03004" fill="#3E4095"/>
<ellipse cx="2.01923" cy="286.235" rx="2.01923" ry="2.03004" fill="#3E4095"/>
<ellipse cx="22.2116" cy="286.235" rx="2.01923" ry="2.03004" fill="#3E4095"/>
<ellipse cx="42.4035" cy="286.235" rx="2.01923" ry="2.03004" fill="#3E4095"/>
<ellipse cx="62.5959" cy="286.235" rx="2.01923" ry="2.03004" fill="#3E4095"/>
<ellipse cx="82.7883" cy="286.235" rx="2.01923" ry="2.03004" fill="#3E4095"/>
<ellipse cx="102.981" cy="286.235" rx="2.01923" ry="2.03004" fill="#3E4095"/>
<ellipse cx="123.173" cy="286.235" rx="2.01923" ry="2.03004" fill="#3E4095"/>
<ellipse cx="143.366" cy="286.235" rx="2.01923" ry="2.03004" fill="#3E4095"/>
<ellipse cx="163.557" cy="286.235" rx="2.01923" ry="2.03004" fill="#3E4095"/>
<ellipse cx="183.75" cy="286.235" rx="2.01923" ry="2.03004" fill="#3E4095"/>
<ellipse cx="203.943" cy="286.235" rx="2.01923" ry="2.03004" fill="#3E4095"/>
<ellipse cx="224.135" cy="286.235" rx="2.01923" ry="2.03004" fill="#3E4095"/>
<ellipse cx="244.328" cy="286.235" rx="2.01923" ry="2.03004" fill="#3E4095"/>
<ellipse cx="264.52" cy="286.235" rx="2.01923" ry="2.03004" fill="#3E4095"/>
<ellipse cx="284.712" cy="286.235" rx="2.01923" ry="2.03004" fill="#3E4095"/>
<ellipse cx="304.904" cy="286.235" rx="2.01923" ry="2.03004" fill="#3E4095"/>
<ellipse cx="325.096" cy="286.235" rx="2.01923" ry="2.03004" fill="#3E4095"/>
<ellipse cx="345.288" cy="286.235" rx="2.01923" ry="2.03004" fill="#3E4095"/>
<ellipse cx="365.481" cy="286.235" rx="2.01923" ry="2.03004" fill="#3E4095"/>
<ellipse cx="385.673" cy="286.235" rx="2.01923" ry="2.03004" fill="#3E4095"/>
<ellipse cx="405.866" cy="286.235" rx="2.01923" ry="2.03004" fill="#3E4095"/>
<ellipse cx="426.057" cy="286.235" rx="2.01923" ry="2.03004" fill="#3E4095"/>
<ellipse cx="2.01923" cy="306.536" rx="2.01923" ry="2.03004" fill="#3E4095"/>
<ellipse cx="22.2116" cy="306.536" rx="2.01923" ry="2.03004" fill="#3E4095"/>
<ellipse cx="42.4035" cy="306.536" rx="2.01923" ry="2.03004" fill="#3E4095"/>
<ellipse cx="62.5959" cy="306.536" rx="2.01923" ry="2.03004" fill="#3E4095"/>
<ellipse cx="82.7883" cy="306.536" rx="2.01923" ry="2.03004" fill="#3E4095"/>
<ellipse cx="102.981" cy="306.536" rx="2.01923" ry="2.03004" fill="#3E4095"/>
<ellipse cx="123.173" cy="306.536" rx="2.01923" ry="2.03004" fill="#3E4095"/>
<ellipse cx="143.366" cy="306.536" rx="2.01923" ry="2.03004" fill="#3E4095"/>
<ellipse cx="163.557" cy="306.536" rx="2.01923" ry="2.03004" fill="#3E4095"/>
<ellipse cx="183.75" cy="306.536" rx="2.01923" ry="2.03004" fill="#3E4095"/>
<ellipse cx="203.943" cy="306.536" rx="2.01923" ry="2.03004" fill="#3E4095"/>
<ellipse cx="224.135" cy="306.536" rx="2.01923" ry="2.03004" fill="#3E4095"/>
<ellipse cx="244.328" cy="306.536" rx="2.01923" ry="2.03004" fill="#3E4095"/>
<ellipse cx="264.52" cy="306.536" rx="2.01923" ry="2.03004" fill="#3E4095"/>
<ellipse cx="284.712" cy="306.536" rx="2.01923" ry="2.03004" fill="#3E4095"/>
<ellipse cx="304.904" cy="306.536" rx="2.01923" ry="2.03004" fill="#3E4095"/>
<ellipse cx="325.096" cy="306.536" rx="2.01923" ry="2.03004" fill="#3E4095"/>
<ellipse cx="345.288" cy="306.536" rx="2.01923" ry="2.03004" fill="#3E4095"/>
<ellipse cx="365.481" cy="306.536" rx="2.01923" ry="2.03004" fill="#3E4095"/>
<ellipse cx="385.673" cy="306.536" rx="2.01923" ry="2.03004" fill="#3E4095"/>
<ellipse cx="405.866" cy="306.536" rx="2.01923" ry="2.03004" fill="#3E4095"/>
<ellipse cx="426.057" cy="306.536" rx="2.01923" ry="2.03004" fill="#3E4095"/>
<ellipse cx="2.01923" cy="326.836" rx="2.01923" ry="2.03004" fill="#3E4095"/>
<ellipse cx="22.2116" cy="326.836" rx="2.01923" ry="2.03004" fill="#3E4095"/>
<ellipse cx="42.4035" cy="326.836" rx="2.01923" ry="2.03004" fill="#3E4095"/>
<ellipse cx="62.5959" cy="326.836" rx="2.01923" ry="2.03004" fill="#3E4095"/>
<ellipse cx="82.7883" cy="326.836" rx="2.01923" ry="2.03004" fill="#3E4095"/>
<ellipse cx="102.981" cy="326.836" rx="2.01923" ry="2.03004" fill="#3E4095"/>
<ellipse cx="123.173" cy="326.836" rx="2.01923" ry="2.03004" fill="#3E4095"/>
<ellipse cx="143.366" cy="326.836" rx="2.01923" ry="2.03004" fill="#3E4095"/>
<ellipse cx="163.557" cy="326.836" rx="2.01923" ry="2.03004" fill="#3E4095"/>
<ellipse cx="183.75" cy="326.836" rx="2.01923" ry="2.03004" fill="#3E4095"/>
<ellipse cx="203.943" cy="326.836" rx="2.01923" ry="2.03004" fill="#3E4095"/>
<ellipse cx="224.135" cy="326.836" rx="2.01923" ry="2.03004" fill="#3E4095"/>
<ellipse cx="244.328" cy="326.836" rx="2.01923" ry="2.03004" fill="#3E4095"/>
<ellipse cx="264.52" cy="326.836" rx="2.01923" ry="2.03004" fill="#3E4095"/>
<ellipse cx="284.712" cy="326.836" rx="2.01923" ry="2.03004" fill="#3E4095"/>
<ellipse cx="304.904" cy="326.836" rx="2.01923" ry="2.03004" fill="#3E4095"/>
<ellipse cx="325.096" cy="326.836" rx="2.01923" ry="2.03004" fill="#3E4095"/>
<ellipse cx="345.288" cy="326.836" rx="2.01923" ry="2.03004" fill="#3E4095"/>
<ellipse cx="365.481" cy="326.836" rx="2.01923" ry="2.03004" fill="#3E4095"/>
<ellipse cx="385.673" cy="326.836" rx="2.01923" ry="2.03004" fill="#3E4095"/>
<ellipse cx="405.866" cy="326.836" rx="2.01923" ry="2.03004" fill="#3E4095"/>
<ellipse cx="426.057" cy="326.836" rx="2.01923" ry="2.03004" fill="#3E4095"/>
<ellipse cx="2.01923" cy="347.136" rx="2.01923" ry="2.03004" fill="#3E4095"/>
<ellipse cx="22.2116" cy="347.136" rx="2.01923" ry="2.03004" fill="#3E4095"/>
<ellipse cx="42.4035" cy="347.136" rx="2.01923" ry="2.03004" fill="#3E4095"/>
<ellipse cx="62.5959" cy="347.136" rx="2.01923" ry="2.03004" fill="#3E4095"/>
<ellipse cx="82.7883" cy="347.136" rx="2.01923" ry="2.03004" fill="#3E4095"/>
<ellipse cx="102.981" cy="347.136" rx="2.01923" ry="2.03004" fill="#3E4095"/>
<ellipse cx="123.173" cy="347.136" rx="2.01923" ry="2.03004" fill="#3E4095"/>
<ellipse cx="143.366" cy="347.136" rx="2.01923" ry="2.03004" fill="#3E4095"/>
<ellipse cx="163.557" cy="347.136" rx="2.01923" ry="2.03004" fill="#3E4095"/>
<ellipse cx="183.75" cy="347.136" rx="2.01923" ry="2.03004" fill="#3E4095"/>
<ellipse cx="203.943" cy="347.136" rx="2.01923" ry="2.03004" fill="#3E4095"/>
<ellipse cx="224.135" cy="347.136" rx="2.01923" ry="2.03004" fill="#3E4095"/>
<ellipse cx="244.328" cy="347.136" rx="2.01923" ry="2.03004" fill="#3E4095"/>
<ellipse cx="264.52" cy="347.136" rx="2.01923" ry="2.03004" fill="#3E4095"/>
<ellipse cx="284.712" cy="347.136" rx="2.01923" ry="2.03004" fill="#3E4095"/>
<ellipse cx="304.904" cy="347.136" rx="2.01923" ry="2.03004" fill="#3E4095"/>
<ellipse cx="325.096" cy="347.136" rx="2.01923" ry="2.03004" fill="#3E4095"/>
<ellipse cx="345.288" cy="347.136" rx="2.01923" ry="2.03004" fill="#3E4095"/>
<ellipse cx="365.481" cy="347.136" rx="2.01923" ry="2.03004" fill="#3E4095"/>
<ellipse cx="385.673" cy="347.136" rx="2.01923" ry="2.03004" fill="#3E4095"/>
<ellipse cx="405.866" cy="347.136" rx="2.01923" ry="2.03004" fill="#3E4095"/>
<ellipse cx="426.057" cy="347.136" rx="2.01923" ry="2.03004" fill="#3E4095"/>
<ellipse cx="2.01923" cy="367.436" rx="2.01923" ry="2.03004" fill="#3E4095"/>
<ellipse cx="22.2116" cy="367.436" rx="2.01923" ry="2.03004" fill="#3E4095"/>
<ellipse cx="42.4035" cy="367.436" rx="2.01923" ry="2.03004" fill="#3E4095"/>
<ellipse cx="62.5959" cy="367.436" rx="2.01923" ry="2.03004" fill="#3E4095"/>
<ellipse cx="82.7883" cy="367.436" rx="2.01923" ry="2.03004" fill="#3E4095"/>
<ellipse cx="102.981" cy="367.436" rx="2.01923" ry="2.03004" fill="#3E4095"/>
<ellipse cx="123.173" cy="367.436" rx="2.01923" ry="2.03004" fill="#3E4095"/>
<ellipse cx="143.366" cy="367.436" rx="2.01923" ry="2.03004" fill="#3E4095"/>
<ellipse cx="163.557" cy="367.436" rx="2.01923" ry="2.03004" fill="#3E4095"/>
<ellipse cx="183.75" cy="367.436" rx="2.01923" ry="2.03004" fill="#3E4095"/>
<ellipse cx="203.943" cy="367.436" rx="2.01923" ry="2.03004" fill="#3E4095"/>
<ellipse cx="224.135" cy="367.436" rx="2.01923" ry="2.03004" fill="#3E4095"/>
<ellipse cx="244.328" cy="367.436" rx="2.01923" ry="2.03004" fill="#3E4095"/>
<ellipse cx="264.52" cy="367.436" rx="2.01923" ry="2.03004" fill="#3E4095"/>
<ellipse cx="284.712" cy="367.436" rx="2.01923" ry="2.03004" fill="#3E4095"/>
<ellipse cx="304.904" cy="367.436" rx="2.01923" ry="2.03004" fill="#3E4095"/>
<ellipse cx="325.096" cy="367.436" rx="2.01923" ry="2.03004" fill="#3E4095"/>
<ellipse cx="345.288" cy="367.436" rx="2.01923" ry="2.03004" fill="#3E4095"/>
<ellipse cx="365.481" cy="367.436" rx="2.01923" ry="2.03004" fill="#3E4095"/>
<ellipse cx="385.673" cy="367.436" rx="2.01923" ry="2.03004" fill="#3E4095"/>
<ellipse cx="405.866" cy="367.436" rx="2.01923" ry="2.03004" fill="#3E4095"/>
<ellipse cx="426.057" cy="367.436" rx="2.01923" ry="2.03004" fill="#3E4095"/>
<ellipse cx="2.01923" cy="387.737" rx="2.01923" ry="2.03004" fill="#3E4095"/>
<ellipse cx="22.2116" cy="387.737" rx="2.01923" ry="2.03004" fill="#3E4095"/>
<ellipse cx="42.4035" cy="387.737" rx="2.01923" ry="2.03004" fill="#3E4095"/>
<ellipse cx="62.5959" cy="387.737" rx="2.01923" ry="2.03004" fill="#3E4095"/>
<ellipse cx="82.7883" cy="387.737" rx="2.01923" ry="2.03004" fill="#3E4095"/>
<ellipse cx="102.981" cy="387.737" rx="2.01923" ry="2.03004" fill="#3E4095"/>
<ellipse cx="123.173" cy="387.737" rx="2.01923" ry="2.03004" fill="#3E4095"/>
<ellipse cx="143.366" cy="387.737" rx="2.01923" ry="2.03004" fill="#3E4095"/>
<ellipse cx="163.557" cy="387.737" rx="2.01923" ry="2.03004" fill="#3E4095"/>
<ellipse cx="183.75" cy="387.737" rx="2.01923" ry="2.03004" fill="#3E4095"/>
<ellipse cx="203.943" cy="387.737" rx="2.01923" ry="2.03004" fill="#3E4095"/>
<ellipse cx="224.135" cy="387.737" rx="2.01923" ry="2.03004" fill="#3E4095"/>
<ellipse cx="244.328" cy="387.737" rx="2.01923" ry="2.03004" fill="#3E4095"/>
<ellipse cx="264.52" cy="387.737" rx="2.01923" ry="2.03004" fill="#3E4095"/>
<ellipse cx="284.712" cy="387.737" rx="2.01923" ry="2.03004" fill="#3E4095"/>
<ellipse cx="304.904" cy="387.737" rx="2.01923" ry="2.03004" fill="#3E4095"/>
<ellipse cx="325.096" cy="387.737" rx="2.01923" ry="2.03004" fill="#3E4095"/>
<ellipse cx="345.288" cy="387.737" rx="2.01923" ry="2.03004" fill="#3E4095"/>
<ellipse cx="365.481" cy="387.737" rx="2.01923" ry="2.03004" fill="#3E4095"/>
<ellipse cx="385.673" cy="387.737" rx="2.01923" ry="2.03004" fill="#3E4095"/>
<ellipse cx="405.866" cy="387.737" rx="2.01923" ry="2.03004" fill="#3E4095"/>
<ellipse cx="426.057" cy="387.737" rx="2.01923" ry="2.03004" fill="#3E4095"/>
<ellipse cx="2.01923" cy="408.037" rx="2.01923" ry="2.03004" fill="#3E4095"/>
<ellipse cx="22.2116" cy="408.037" rx="2.01923" ry="2.03004" fill="#3E4095"/>
<ellipse cx="42.4035" cy="408.037" rx="2.01923" ry="2.03004" fill="#3E4095"/>
<ellipse cx="62.5959" cy="408.037" rx="2.01923" ry="2.03004" fill="#3E4095"/>
<ellipse cx="82.7883" cy="408.037" rx="2.01923" ry="2.03004" fill="#3E4095"/>
<ellipse cx="102.981" cy="408.037" rx="2.01923" ry="2.03004" fill="#3E4095"/>
<ellipse cx="123.173" cy="408.037" rx="2.01923" ry="2.03004" fill="#3E4095"/>
<ellipse cx="143.366" cy="408.037" rx="2.01923" ry="2.03004" fill="#3E4095"/>
<ellipse cx="163.557" cy="408.037" rx="2.01923" ry="2.03004" fill="#3E4095"/>
<ellipse cx="183.75" cy="408.037" rx="2.01923" ry="2.03004" fill="#3E4095"/>
<ellipse cx="203.943" cy="408.037" rx="2.01923" ry="2.03004" fill="#3E4095"/>
<ellipse cx="224.135" cy="408.037" rx="2.01923" ry="2.03004" fill="#3E4095"/>
<ellipse cx="244.328" cy="408.037" rx="2.01923" ry="2.03004" fill="#3E4095"/>
<ellipse cx="264.52" cy="408.037" rx="2.01923" ry="2.03004" fill="#3E4095"/>
<ellipse cx="284.712" cy="408.037" rx="2.01923" ry="2.03004" fill="#3E4095"/>
<ellipse cx="304.904" cy="408.037" rx="2.01923" ry="2.03004" fill="#3E4095"/>
<ellipse cx="325.096" cy="408.037" rx="2.01923" ry="2.03004" fill="#3E4095"/>
<ellipse cx="345.288" cy="408.037" rx="2.01923" ry="2.03004" fill="#3E4095"/>
<ellipse cx="365.481" cy="408.037" rx="2.01923" ry="2.03004" fill="#3E4095"/>
<ellipse cx="385.673" cy="408.037" rx="2.01923" ry="2.03004" fill="#3E4095"/>
<ellipse cx="405.866" cy="408.037" rx="2.01923" ry="2.03004" fill="#3E4095"/>
<ellipse cx="426.057" cy="408.037" rx="2.01923" ry="2.03004" fill="#3E4095"/>
<ellipse cx="2.01923" cy="428.338" rx="2.01923" ry="2.03004" fill="#3E4095"/>
<ellipse cx="22.2116" cy="428.338" rx="2.01923" ry="2.03004" fill="#3E4095"/>
<ellipse cx="42.4035" cy="428.338" rx="2.01923" ry="2.03004" fill="#3E4095"/>
<ellipse cx="62.5959" cy="428.338" rx="2.01923" ry="2.03004" fill="#3E4095"/>
<ellipse cx="82.7883" cy="428.338" rx="2.01923" ry="2.03004" fill="#3E4095"/>
<ellipse cx="102.981" cy="428.338" rx="2.01923" ry="2.03004" fill="#3E4095"/>
<ellipse cx="123.173" cy="428.338" rx="2.01923" ry="2.03004" fill="#3E4095"/>
<ellipse cx="143.366" cy="428.338" rx="2.01923" ry="2.03004" fill="#3E4095"/>
<ellipse cx="163.557" cy="428.338" rx="2.01923" ry="2.03004" fill="#3E4095"/>
<ellipse cx="183.75" cy="428.338" rx="2.01923" ry="2.03004" fill="#3E4095"/>
<ellipse cx="203.943" cy="428.338" rx="2.01923" ry="2.03004" fill="#3E4095"/>
<ellipse cx="224.135" cy="428.338" rx="2.01923" ry="2.03004" fill="#3E4095"/>
<ellipse cx="244.328" cy="428.338" rx="2.01923" ry="2.03004" fill="#3E4095"/>
<ellipse cx="264.52" cy="428.338" rx="2.01923" ry="2.03004" fill="#3E4095"/>
<ellipse cx="284.712" cy="428.338" rx="2.01923" ry="2.03004" fill="#3E4095"/>
<ellipse cx="304.904" cy="428.338" rx="2.01923" ry="2.03004" fill="#3E4095"/>
<ellipse cx="325.096" cy="428.338" rx="2.01923" ry="2.03004" fill="#3E4095"/>
<ellipse cx="345.288" cy="428.338" rx="2.01923" ry="2.03004" fill="#3E4095"/>
<ellipse cx="365.481" cy="428.338" rx="2.01923" ry="2.03004" fill="#3E4095"/>
<ellipse cx="385.673" cy="428.338" rx="2.01923" ry="2.03004" fill="#3E4095"/>
<ellipse cx="405.866" cy="428.338" rx="2.01923" ry="2.03004" fill="#3E4095"/>
<ellipse cx="426.057" cy="428.338" rx="2.01923" ry="2.03004" fill="#3E4095"/>
</svg>
