<svg width="18" height="18" viewBox="0 0 18 18" fill="none" xmlns="http://www.w3.org/2000/svg">
<path d="M15.5499 15.9391H12.8457V11.7363C12.8457 10.7341 12.8277 9.4444 11.4391 9.4444C10.0308 9.4444 9.815 10.5359 9.815 11.664V15.9391H7.11169V7.29616H9.70798V8.47693H9.74396C10.2736 7.57908 11.2575 7.04269 12.3052 7.08107C15.0462 7.08107 15.5508 8.87052 15.5508 11.1973L15.5499 15.9391ZM4.06036 6.1145C3.19343 6.1145 2.49107 5.41746 2.49107 4.5571C2.49107 3.69673 3.19343 2.99969 4.06036 2.99969C4.92728 2.99969 5.62964 3.69673 5.62964 4.5571C5.62964 5.41746 4.92728 6.1145 4.06036 6.1145ZM5.41201 15.9391H2.70511V7.29616H5.41201V15.9391ZM16.8979 0.50785H1.34626C0.611527 0.499818 0.00899304 1.0844 0 1.81357V17.3108C0.00899304 18.0409 0.611527 18.6255 1.34626 18.6175H16.8979C17.6344 18.6264 18.2397 18.0418 18.2496 17.3108V1.81268C18.2388 1.08172 17.6335 0.49714 16.8979 0.506958" fill="white"/>
</svg>
