<svg width="30" height="31" viewBox="0 0 30 31" fill="none" xmlns="http://www.w3.org/2000/svg">
<g clip-path="url(#clip0_170_1713)">
<path d="M22.955 22.0722L15 30.0271L7.04505 22.0722C2.65165 17.6787 2.65165 10.5556 7.04505 6.16224C11.4384 1.76884 18.5615 1.76884 22.955 6.16224C27.3484 10.5556 27.3484 17.6787 22.955 22.0722ZM15 19.1172C17.7614 19.1172 20 16.8786 20 14.1172C20 11.3558 17.7614 9.11719 15 9.11719C12.2386 9.11719 10 11.3558 10 14.1172C10 16.8786 12.2386 19.1172 15 19.1172ZM15 16.6172C13.6193 16.6172 12.5 15.4979 12.5 14.1172C12.5 12.7365 13.6193 11.6172 15 11.6172C16.3807 11.6172 17.5 12.7365 17.5 14.1172C17.5 15.4979 16.3807 16.6172 15 16.6172Z" fill="white"/>
</g>
<defs>
<clipPath id="clip0_170_1713">
<rect width="30" height="30" fill="white" transform="translate(0 0.367188)"/>
</clipPath>
</defs>
</svg>
