<svg width="64" height="64" viewBox="0 0 64 64" fill="none" xmlns="http://www.w3.org/2000/svg">
<path fill-rule="evenodd" clip-rule="evenodd" d="M30.7656 1.84375C27.3047 5.49712 24.96 9.78162 23.805 14.5625C23.2257 16.96 23.1014 18.143 23.0345 21.8941L22.9705 25.4757L21.64 26.6518C18.7312 29.2228 16.323 32.7475 14.9966 36.375C14.2026 38.5465 13.8784 40.19 13.1786 45.5887C12.9794 47.1261 12.9789 47.2618 13.1714 47.5555C13.2851 47.729 13.526 47.9081 13.7066 47.9535C14.3681 48.1195 14.6296 47.8884 15.493 46.3745C16.1359 45.2471 16.5549 44.6928 17.4375 43.8019C18.3926 42.8378 18.7419 42.5782 19.75 42.0839C20.8979 41.5209 22.1216 41.125 22.7137 41.125C22.9742 41.125 23 41.1818 23 41.7556C23 42.6578 23.3595 43 24.3069 43H25V44.6931C25 46.3243 25.0112 46.3976 25.3069 46.6931C25.6136 47 25.614 47 28.3069 47H31V49V51H32H33V49V47H35.6931C38.386 47 38.3864 47 38.6931 46.6931C38.9887 46.3976 39 46.3243 39 44.6931V43H39.6931C40.6405 43 41 42.6578 41 41.7556C41 41.1818 41.0257 41.125 41.2862 41.125C41.8784 41.125 43.1021 41.5209 44.25 42.0839C45.2581 42.5782 45.6074 42.8378 46.5625 43.8019C47.4451 44.6928 47.8641 45.2471 48.507 46.3745C49.3704 47.8884 49.6319 48.1195 50.2934 47.9535C50.474 47.9081 50.715 47.7289 50.8289 47.5551C51.0234 47.2583 51.0151 47.0799 50.6917 44.5884C50.2007 40.8045 49.8175 38.8241 49.2396 37.0843C47.9102 33.0821 45.3179 29.1856 42.1915 26.4905L41 25.4634V22.6909C41 21.166 40.9402 19.304 40.8671 18.553C40.2591 12.3042 37.5805 6.44163 33.2329 1.84375C32.5452 1.1165 32.375 1 32 1C31.6251 1 31.4542 1.11675 30.7656 1.84375ZM30.9861 4.59375C29.8192 6.00587 28.6316 7.81975 27.7925 9.47125C27.4254 10.1937 27.125 10.8334 27.125 10.8925C27.125 10.9516 29.3187 11 32 11C34.6812 11 36.875 10.9516 36.875 10.8925C36.875 10.636 35.4457 8.00475 34.6889 6.86788C33.7942 5.524 32.1782 3.5 32 3.5C31.9395 3.5 31.4832 3.99225 30.9861 4.59375ZM25.9982 14.0312C25.0416 17.5647 25 18.2499 25 30.4508V41H32H39V30.4508C39 18.2499 38.9584 17.5647 38.0017 14.0312L37.7226 13H32H26.2774L25.9982 14.0312ZM30.7635 19.1353C29.1417 19.4538 27.4329 20.7796 26.6794 22.3044C24.1595 27.4029 29.4225 32.7986 34.5672 30.3911C36.8951 29.3017 38.302 26.6639 37.909 24.125C37.384 20.7334 34.1446 18.4713 30.7635 19.1353ZM30.7506 21.2085C27.9286 22.1959 27.0924 25.7234 29.1845 27.8155C30.0049 28.6359 30.749 28.9311 32 28.9326C32.9119 28.9337 33.153 28.8865 33.7009 28.5989C34.645 28.1035 35.0355 27.726 35.5104 26.8501C35.9012 26.1294 35.9375 25.9724 35.9375 25C35.9375 24.016 35.9045 23.8775 35.4901 23.125C34.5374 21.3946 32.5341 20.5845 30.7506 21.2085ZM21.7986 29.2812C18.6727 32.5281 16.6575 36.4348 15.8794 40.756C15.5144 42.783 15.5062 42.7586 16.3007 42.0325C17.182 41.2271 18.1666 40.58 19.3261 40.0443C20.3536 39.5695 21.9284 39.125 22.5825 39.125H23V33.625C23 30.6 22.9801 28.125 22.9559 28.125C22.9316 28.125 22.4109 28.6453 21.7986 29.2812ZM41 33.5976V39.125H41.4175C42.0716 39.125 43.6464 39.5695 44.6739 40.0443C45.8334 40.58 46.818 41.2271 47.6992 42.0325C48.4941 42.759 48.4855 42.7854 48.119 40.7406C47.3272 36.3222 45.0427 32.0385 41.7601 28.8164L41 28.0704V33.5976ZM27 44V45H32H37V44V43H32H27V44ZM26.3725 49.6495C25.3234 51.2716 25.0596 52.1046 25.0739 53.75C25.0831 54.819 25.142 55.2135 25.3915 55.8769C25.8837 57.186 26.465 57.9167 29.0941 60.5312C31.3551 62.7796 31.6151 63 32.0071 63.0005C32.4017 63.0009 32.6566 62.78 35.0721 60.3442C37.7806 57.613 38.2279 57.0314 38.7012 55.625C39.0451 54.6036 39.0216 52.6963 38.6519 51.6183C38.399 50.8809 36.9929 48.5 36.8102 48.5C36.7695 48.5 36.3977 48.7299 35.984 49.0109C35.4879 49.3478 35.255 49.5827 35.3004 49.7009C35.3381 49.7994 35.6005 50.2209 35.8835 50.6375C36.7621 51.9315 36.9296 52.418 36.9337 53.6901C36.9395 55.4354 36.645 55.9296 34.0677 58.4986L32 60.5596L29.9322 58.4986C27.5531 56.127 27.1654 55.5302 27.0412 54.0489C26.9441 52.891 27.1921 52.0623 28.011 50.8078C28.3631 50.2684 28.6776 49.7584 28.7097 49.6745C28.7595 49.5449 27.4072 48.5 27.1897 48.5C27.1491 48.5 26.7812 49.0173 26.3725 49.6495Z" fill="#EC3237"/>
</svg>
