<svg width="62" height="52" viewBox="0 0 62 52" fill="none" xmlns="http://www.w3.org/2000/svg">
<path fill-rule="evenodd" clip-rule="evenodd" d="M29.6895 0.118904C27.0606 0.679904 25.116 2.41965 24.2337 5.00015C24.0638 5.49715 23.9986 6.05128 23.9986 7.00015C23.9986 8.34815 24.1655 9.08403 24.7171 10.1685C24.8516 10.433 24.9364 10.6744 24.9054 10.7049C24.8144 10.7948 22.9207 9.77115 22.0967 9.18678C21.6791 8.89065 19.686 7.25778 17.6676 5.55828C15.6492 3.85878 13.8284 2.36428 13.6213 2.23728C13.4143 2.11015 12.9556 1.9469 12.6017 1.87428C11.2693 1.60115 9.96478 2.19703 9.19171 3.43215C8.85345 3.97278 8.80967 4.15203 8.81194 4.9904C8.81372 5.67615 8.88015 6.05828 9.05263 6.37453C9.18361 6.61478 12.3561 9.87728 16.1026 13.6245L22.9145 20.4377L22.9193 25.0002H24.944V19.568L18.0647 12.7528C14.2811 9.00453 11.0922 5.79853 10.9782 5.62853C10.3663 4.71628 11.3195 3.48715 12.3412 3.87078C12.5289 3.94128 13.9721 5.08203 15.5482 6.40578C20.02 10.1615 20.2679 10.3622 21.2474 11.0199C23.135 12.2874 25.4835 13.2488 27.8204 13.7104C29.4932 14.0409 32.8119 14.0085 34.5299 13.6449C36.7671 13.1714 38.8924 12.2914 40.7521 11.0685C41.2101 10.7674 43.3594 9.03303 45.5284 7.2144C47.6972 5.39578 49.6152 3.87215 49.7904 3.82878C50.2159 3.72328 50.667 3.90715 50.9959 4.32015C51.3183 4.72515 51.3414 5.20653 51.0583 5.62853C50.9443 5.79853 47.7553 9.00453 43.9717 12.7528L37.0924 19.568V25.0002H39.1172L39.1256 20.4377L45.8292 13.7502C49.5161 10.072 52.689 6.80953 52.8798 6.50015C53.1778 6.01753 53.227 5.80315 53.227 4.9904C53.227 4.1544 53.1821 3.97128 52.8447 3.43215C51.8678 1.8714 49.8762 1.33615 48.4117 2.24065C48.2066 2.3674 46.3872 3.86165 44.3688 5.56128C42.3504 7.26078 40.3573 8.89315 39.9397 9.18865C39.1016 9.78178 37.3672 10.7457 37.1329 10.7484C37.0413 10.7495 37.0967 10.5452 37.2768 10.2189C37.8526 9.17528 38.0379 8.3919 38.0379 7.00015C38.0379 6.05128 37.9727 5.49715 37.8027 5.00015C36.7852 2.02403 34.374 0.181404 31.3346 0.0574037C30.7082 0.0317787 29.9679 0.0595288 29.6895 0.118904ZM29.831 2.13115C29.0302 2.3299 27.8905 2.99615 27.3373 3.58903C27.0532 3.89353 26.6404 4.51853 26.4202 4.97765C26.0575 5.73378 26.0197 5.9254 26.0197 7.00665C26.0197 8.13353 26.0462 8.25365 26.4923 9.14515C27.0615 10.2829 27.7942 10.9915 28.9707 11.542C29.7352 11.8998 29.9311 11.9377 31.0182 11.9377C32.1054 11.9377 32.3013 11.8998 33.0657 11.542C34.2422 10.9915 34.9749 10.2829 35.5441 9.14515C35.9907 8.25265 36.0168 8.13453 36.0168 7.00015C36.0168 5.86578 35.9907 5.74765 35.5441 4.85515C34.6891 3.14603 33.1699 2.14315 31.3028 2.0554C30.7635 2.03003 30.1011 2.06415 29.831 2.13115ZM10.4545 23.1189C7.82564 23.6799 5.88101 25.4197 4.99873 28.0002C4.67149 28.9574 4.6725 31.0479 5.00063 32.0002C5.34901 33.0109 5.66804 33.6019 6.30013 34.4064C6.84099 35.0949 6.85187 35.1252 6.55981 35.1252C6.39213 35.1252 5.92784 35.2363 5.5282 35.3722C3.37996 36.1022 1.81762 37.642 1.00229 39.8332C0.761217 40.481 0.724898 40.8879 0.677191 43.4703L0.623535 46.378L1.01001 46.7345C2.62397 48.2238 7.59508 49.1414 13.0487 48.9569C15.195 48.8842 17.7794 48.619 17.946 48.4543C18.0074 48.3938 17.7563 46.7932 17.6579 46.6172C17.6362 46.5784 17.117 46.6187 16.5042 46.7068C15.8913 46.7949 14.3078 46.9044 12.9854 46.9503C9.15665 47.0829 5.74358 46.6983 3.63305 45.8964L2.73521 45.5553V40.7987L3.20786 39.8547C3.77706 38.7174 4.51027 38.0085 5.68626 37.4583L6.53159 37.0627H17.0481L18.0146 37.5345C18.6604 37.8498 19.162 38.2065 19.5257 38.609L20.0701 39.2115L20.8594 38.6995C21.2934 38.418 21.6498 38.1223 21.6512 38.0423C21.6555 37.8047 20.2115 36.4298 19.5637 36.0548C18.8244 35.6268 17.451 35.1252 17.0186 35.1252H16.6974L16.9682 34.7814C17.6797 33.8784 18.2476 32.91 18.5122 32.1489C18.8954 31.047 18.9222 29.0369 18.5678 28.0002C17.5502 25.024 15.139 23.1814 12.0996 23.0574C11.4732 23.0318 10.7329 23.0595 10.4545 23.1189ZM48.9245 23.1189C46.2956 23.6799 44.351 25.4197 43.4687 28.0002C43.1415 28.9574 43.1425 31.0479 43.4706 32.0002C43.8173 33.0063 44.1376 33.6013 44.7571 34.39L45.3087 35.0924L44.7196 35.1722C43.6961 35.3108 42.141 36.1522 41.2118 37.07C40.7558 37.5205 40.3838 37.9563 40.3853 38.0384C40.3867 38.1205 40.743 38.418 41.1771 38.6995L41.9664 39.2115L42.5107 38.609C42.8744 38.2065 43.3761 37.8498 44.0218 37.5345L44.9884 37.0627H55.5049L56.3502 37.4583C57.5262 38.0085 58.2594 38.7174 58.8286 39.8547L59.3013 40.7987V45.5553L58.4034 45.8964C56.2929 46.6983 52.8798 47.0829 49.051 46.9503C47.7286 46.9044 46.1452 46.7949 45.5323 46.7068C44.9194 46.6187 44.4002 46.5784 44.3786 46.6172C44.2801 46.7932 44.029 48.3938 44.0904 48.4543C44.2571 48.619 46.8414 48.8842 48.9878 48.9569C54.091 49.1297 58.6941 48.3588 60.7 46.9955C61.0084 46.786 61.2951 46.4785 61.3374 46.3123C61.3796 46.146 61.389 44.7844 61.3583 43.2863C61.3086 40.8652 61.2709 40.4763 61.019 39.7848C60.4657 38.2662 59.4434 36.9933 58.0759 36.1202C57.3016 35.6258 55.9903 35.1252 55.4697 35.1252H55.1674L55.4382 34.7814C56.1496 33.8784 56.7176 32.91 56.9822 32.1489C57.3654 31.047 57.3922 29.0369 57.0377 28.0002C56.0202 25.024 53.609 23.1814 50.5696 23.0574C49.9432 23.0318 49.2029 23.0595 48.9245 23.1189ZM10.596 25.1312C9.79521 25.3299 8.65553 25.9962 8.10227 26.589C7.81818 26.8935 7.40539 27.5185 7.1852 27.9777C6.82252 28.7338 6.78468 28.9254 6.78468 30.0067C6.78468 31.1335 6.81125 31.2537 7.25733 32.1452C7.82653 33.2829 8.55923 33.9915 9.73573 34.542C10.5002 34.8998 10.6961 34.9377 11.7832 34.9377C12.8704 34.9377 13.0663 34.8998 13.8308 34.542C15.0073 33.9915 15.74 33.2829 16.3092 32.1452C16.7557 31.2527 16.7818 31.1345 16.7818 30.0002C16.7818 28.8658 16.7557 28.7477 16.3092 27.8552C15.4541 26.146 13.9349 25.1432 12.0678 25.0554C11.5285 25.03 10.8662 25.0642 10.596 25.1312ZM49.066 25.1312C48.2652 25.3299 47.1255 25.9962 46.5722 26.589C46.2881 26.8935 45.8754 27.5185 45.6552 27.9777C45.2925 28.7338 45.2547 28.9254 45.2547 30.0067C45.2547 31.1335 45.2812 31.2537 45.7273 32.1452C46.2965 33.2829 47.0292 33.9915 48.2057 34.542C48.9702 34.8998 49.1661 34.9377 50.2532 34.9377C51.3404 34.9377 51.5363 34.8998 52.3007 34.542C53.4772 33.9915 54.2099 33.2829 54.7791 32.1452C55.2257 31.2527 55.2518 31.1345 55.2518 30.0002C55.2518 28.8658 55.2257 28.7477 54.7791 27.8552C53.9241 26.146 52.4049 25.1432 50.5378 25.0554C49.9985 25.03 49.3361 25.0642 49.066 25.1312ZM29.6895 26.1189C27.0606 26.6799 25.116 28.4197 24.2337 31.0002C23.9065 31.9574 23.9075 34.0479 24.2356 35.0002C24.584 36.0109 24.903 36.6019 25.5351 37.4064C26.0715 38.0893 26.0847 38.1252 25.7996 38.1252C25.2766 38.1252 23.9659 38.6283 23.1772 39.1319C21.7873 40.0192 20.8411 41.2105 20.2373 42.8332C19.9962 43.481 19.9599 43.8879 19.9122 46.4703L19.8585 49.378L20.245 49.7345C22.4907 51.8068 31.1956 52.6609 37.4655 51.4244C39.9119 50.9419 41.9208 50.0268 42.1024 49.3123C42.1447 49.146 42.154 47.7844 42.1233 46.2863C42.0737 43.8652 42.036 43.4763 41.784 42.7848C41.239 41.2887 40.0034 39.7583 38.7527 39.03C38.0562 38.6245 36.6771 38.1252 36.2536 38.1252H35.9324L36.2032 37.7814C36.9146 36.8784 37.4826 35.91 37.7472 35.1489C38.1304 34.047 38.1572 32.0369 37.8027 31.0002C36.7852 28.024 34.374 26.1814 31.3346 26.0574C30.7082 26.0318 29.9679 26.0595 29.6895 26.1189ZM29.831 28.1312C29.0302 28.3299 27.8905 28.9962 27.3373 29.589C27.0532 29.8935 26.6404 30.5185 26.4202 30.9777C26.0575 31.7338 26.0197 31.9254 26.0197 33.0067C26.0197 34.1335 26.0462 34.2537 26.4923 35.1452C27.0615 36.2829 27.7942 36.9915 28.9707 37.542C29.7352 37.8998 29.9311 37.9377 31.0182 37.9377C32.1054 37.9377 32.3013 37.8998 33.0657 37.542C34.2422 36.9915 34.9749 36.2829 35.5441 35.1452C35.9907 34.2527 36.0168 34.1345 36.0168 33.0002C36.0168 31.8658 35.9907 31.7477 35.5441 30.8552C34.6891 29.146 33.1699 28.1432 31.3028 28.0554C30.7635 28.03 30.1011 28.0642 29.831 28.1312ZM25.7815 40.1359C24.9902 40.3247 23.8448 40.9922 23.2878 41.589C23.0037 41.8935 22.5909 42.5185 22.3707 42.9777L21.9702 43.8127V48.5553L22.868 48.8964C24.9633 49.6925 28.3703 50.0792 32.2204 49.9578C35.5396 49.8532 37.8487 49.4748 39.5403 48.7585L40.1532 48.499L40.1098 46.1558C40.0665 43.8242 40.0642 43.8085 39.6657 42.9777C39.1086 41.8159 38.391 41.0918 37.2396 40.5295L36.2838 40.0627L31.2783 40.0407C28.5082 40.0285 26.0533 40.071 25.7815 40.1359Z" fill="#EC3237"/>
</svg>
