<svg width="23" height="23" viewBox="0 0 23 23" fill="none" xmlns="http://www.w3.org/2000/svg">
<path d="M22.5 17.1422V21.5623C22.5 22.2186 21.9926 22.7631 21.3381 22.8093C20.7914 22.8479 20.3454 22.8672 20 22.8672C8.95425 22.8672 0 13.9129 0 2.86719C0 2.52183 0.0193125 2.07578 0.0579375 1.52906C0.104213 0.874538 0.648675 0.367188 1.30482 0.367188H5.72513C6.04598 0.367188 6.3147 0.610213 6.34691 0.929438C6.37584 1.21602 6.40273 1.44611 6.42759 1.61971C6.68044 3.38559 7.19691 5.06639 7.93587 6.62097C8.05449 6.8705 7.97714 7.16918 7.75231 7.32976L5.05444 9.25694C6.6969 13.0936 9.77362 16.1703 13.6102 17.8128L15.5339 15.1196C15.6965 14.8921 15.9987 14.8138 16.2512 14.9337C17.8057 15.6721 19.4864 16.1879 21.252 16.4402C21.4245 16.4649 21.6531 16.4916 21.9377 16.5203C22.257 16.5526 22.5 16.8213 22.5 17.1422Z" fill="#EC3237"/>
</svg>
