<svg width="30" height="31" viewBox="0 0 30 31" fill="none" xmlns="http://www.w3.org/2000/svg">
<g clip-path="url(#clip0_170_1090)">
<path d="M0 9.93016C0 8.16266 0.705 6.48141 1.99125 5.19516C4.8475 2.33891 9.92375 0.910156 15 0.910156C20.0763 0.910156 25.1525 2.33891 28.0087 5.19641C29.2937 6.48141 30.0012 8.16391 30 9.93141C30 11.6364 29.0725 13.1052 27.7063 13.9189L24.475 9.33391C23.745 8.29891 22.73 7.49141 21.54 7.05516C20.0163 6.49641 17.7025 5.86766 15 5.86766C12.2975 5.86766 9.98375 6.49641 8.46 7.05516C7.27 7.49141 6.255 8.29766 5.525 9.33391L2.29375 13.9189C0.9275 13.1052 0 11.6352 0 9.93016ZM18.75 19.6177C18.75 21.6852 17.0675 23.3677 15 23.3677C12.9325 23.3677 11.25 21.6852 11.25 19.6177C11.25 17.5502 12.9325 15.8677 15 15.8677C17.0675 15.8677 18.75 17.5502 18.75 19.6177ZM29.9975 26.1139C29.9487 28.7777 27.6775 30.8677 25.0138 30.8677H4.98625C2.36875 30.8677 0.05 28.7314 0.0025 26.1139C-0.03625 24.0102 0.4175 21.9089 1.31125 20.0064C1.505 19.5952 1.745 19.2064 2 18.8302L7.14625 11.2114C7.755 10.3114 8.63125 9.63266 9.66 9.28141C10.9637 8.83516 12.8425 8.36766 15 8.36766C17.1462 8.36766 19.0312 8.83766 20.34 9.28516C21.3687 9.63766 22.2487 10.3152 22.8575 11.2164L28.3825 19.3964C29.48 21.4539 30.04 23.7827 29.9975 26.1139ZM21.25 19.6177C21.25 16.1714 18.4463 13.3677 15 13.3677C11.5538 13.3677 8.75 16.1714 8.75 19.6177C8.75 23.0639 11.5538 25.8677 15 25.8677C18.4463 25.8677 21.25 23.0639 21.25 19.6177Z" fill="#EC3237"/>
</g>
<defs>
<clipPath id="clip0_170_1090">
<rect width="30" height="30" fill="white" transform="translate(0 0.867188)"/>
</clipPath>
</defs>
</svg>
