<svg width="64" height="64" viewBox="0 0 64 64" fill="none" xmlns="http://www.w3.org/2000/svg">
<g clip-path="url(#clip0_170_1148)">
<path fill-rule="evenodd" clip-rule="evenodd" d="M23.7955 0.146483C23.3447 0.364608 23.25 0.795483 23.25 2.62523C23.25 4.49073 23.3431 4.88861 23.8321 5.11148C24.293 5.32148 24.5756 5.28061 24.9618 4.94861L25.3125 4.64686V2.62523V0.603608L24.9618 0.301858C24.5901 -0.0177672 24.233 -0.0653922 23.7955 0.146483ZM7.54462 6.87423C7.16925 7.02573 6.875 7.48886 6.875 7.92836C6.875 8.23623 7.1195 8.54536 8.28725 9.71298C9.50712 10.9329 9.75475 11.1252 10.1054 11.1252C10.6756 11.1252 11.125 10.6517 11.125 10.0509C11.125 9.63648 11.0025 9.46523 9.90625 8.34673C8.805 7.22298 8.19362 6.73586 7.9125 6.75811C7.8575 6.76248 7.692 6.81473 7.54462 6.87423ZM40.3125 6.87048C40.175 6.92798 39.4579 7.59098 38.7188 8.34398C37.2071 9.88398 37.1084 10.1277 37.7404 10.7599C38.3776 11.3971 38.6131 11.2981 40.2116 9.72098C40.9945 8.94873 41.6659 8.19336 41.7038 8.04248C41.8105 7.61723 41.6396 7.25561 41.2076 6.99211C40.7746 6.72811 40.6831 6.71561 40.3125 6.87048ZM22.5539 7.37436C17.8583 7.86686 13.5749 10.3102 10.7811 14.0901C6.90525 19.3341 6.214 26.3085 9.01475 31.9121C9.727 33.337 10.7771 34.7729 12.1779 36.2369C13.8371 37.9709 14.2039 38.4292 14.7989 39.5122C15.4011 40.6085 15.8345 41.9166 16.0028 43.1456C16.0785 43.6989 16.123 44.1619 16.1015 44.1747C14.9342 44.8741 14.4846 45.4361 14.1911 46.5627C13.9077 47.6501 14.0723 48.6022 14.7011 49.5166L15.0134 49.9705L14.6423 50.5556C13.7171 52.0145 13.899 53.7976 15.0999 55.0421C15.7758 55.7424 16.4169 56.0302 17.4513 56.0979L18.3401 56.1559L18.4094 57.3171C18.5164 59.1109 19.1235 60.1726 20.4263 60.8444C20.9518 61.1152 21.2766 61.1817 22.2925 61.2264L23.5225 61.2802L24.0145 61.8139C24.9344 62.812 27.3924 63.8194 29.2436 63.9571C30.3708 64.041 31.4673 63.8974 34.0966 63.3212C36.831 62.7221 38.2976 62.526 41.1875 62.373C44.5481 62.1951 45.2836 62.0729 45.8191 61.6026C46.6078 60.9102 46.5086 59.8391 45.5843 59.0631C45.2973 58.8222 44.5599 58.2701 43.9456 57.8361C42.707 56.961 42.2824 56.3852 42.484 55.8547C42.5478 55.6872 42.8559 55.2501 43.1689 54.8835C44.1305 53.7569 44.3635 52.5755 43.8421 51.4696C43.6842 51.1347 43.0916 50.3947 42.4808 49.7695C41.3516 48.6139 40.9498 47.9855 40.6699 46.9377C40.4701 46.1897 40.4694 44.8104 40.6683 43.9102C40.8098 43.2701 40.8763 43.1975 44.1875 40.0669C46.3524 38.0199 47.655 36.8757 47.8204 36.8755C47.9621 36.8754 49.3368 37.1284 50.875 37.4377C54.1045 38.0872 54.3591 38.1059 54.7155 37.719C55.01 37.3992 63.875 8.87323 63.875 8.24523C63.875 7.82273 63.5279 7.41836 63.0654 7.30223C62.811 7.23848 60.7726 8.25086 52.5935 12.5039C47.0077 15.4084 41.9784 18.032 41.4173 18.3341L40.3971 18.8835L40.245 18.4106C40.0101 17.6801 39.0351 15.7771 38.4339 14.8752C35.9321 11.1232 31.9486 8.47911 27.5049 7.62111C26.0455 7.33936 23.905 7.23261 22.5539 7.37436ZM23.0625 9.50798C18.5773 9.86936 14.3531 12.302 11.9567 15.9034C8.60337 20.9432 8.53537 27.4266 11.7836 32.4099C12.1749 33.0101 13.1486 34.19 13.9476 35.032C16.5659 37.7911 17.7784 40.1074 18.0923 42.9499L18.1875 43.8127L24.2734 43.8451L30.3594 43.8776L30.4322 43.2826C30.7132 40.9904 31.6465 38.58 32.8645 37.0002C33.209 36.5534 33.493 36.1441 33.4955 36.0909C33.498 36.0376 33.1088 35.4734 32.6305 34.8371L31.761 33.6804L28.9743 33.1362C16.4964 30.6997 17.4276 30.8937 17.5756 30.7615C17.6371 30.7066 22.3704 28.227 28.0938 25.2514C33.8172 22.2757 38.5 19.7886 38.5 19.7245C38.5 19.4912 37.6889 17.6659 37.2061 16.8127C34.3522 11.7699 29.0401 9.02623 23.0625 9.50798ZM56.375 12.8704C53.7969 14.2155 45.3695 18.6059 37.6474 22.6269L23.6074 29.9377L27.8645 30.7841L32.1217 31.6306L41.8343 25.1162C47.648 21.2169 51.7005 18.577 51.9296 18.5397C52.1979 18.4962 52.4114 18.5554 52.6423 18.737C53.1386 19.1274 53.1926 19.5524 52.8242 20.1679C52.6531 20.4537 50.4349 23.6409 47.8947 27.2502L43.2765 33.8127L48.2684 34.7972C51.0139 35.3387 53.2784 35.7606 53.3006 35.7347C53.3616 35.6639 61.1256 10.457 61.0919 10.4397C61.0757 10.4315 58.9531 11.5252 56.375 12.8704ZM0.812625 23.2585C0.32425 23.4041 0.125 23.6921 0.125 24.2524C0.125 24.5656 0.214875 24.791 0.41425 24.9785C0.685625 25.2334 0.824 25.2502 2.6365 25.2502C4.2065 25.2502 4.623 25.2126 4.85512 25.0501C5.57837 24.5435 5.39488 23.4966 4.54125 23.2596C3.96963 23.1009 1.34387 23.1001 0.812625 23.2585ZM40.9944 28.1965C37.2506 30.7107 34.1049 32.8152 34.0039 32.8731C33.8599 32.9556 34.4129 33.763 36.5664 36.6145L39.3125 40.2507L39.8957 37.3135C40.3037 35.2591 40.5645 34.2351 40.7635 33.907C41.3829 32.8852 42.9036 30.6635 45.1053 27.5636C47.9185 23.6027 47.9028 23.6252 47.8466 23.6252C47.8216 23.6252 44.7381 25.6824 40.9944 28.1965ZM41.961 37.6024C41.7732 38.6119 41.6209 39.4849 41.6224 39.5424C41.6238 39.5999 42.4167 38.8979 43.3846 37.9824L45.1441 36.3177L44.0409 36.1032C43.434 35.9852 42.7946 35.8614 42.6199 35.8279C42.3031 35.7671 42.3015 35.7717 41.961 37.6024ZM8.28725 38.7875C7.1015 39.9732 6.875 40.2612 6.875 40.5831C6.875 41.1749 7.29838 41.6252 7.85488 41.6252C8.27675 41.6252 8.43775 41.5037 9.72075 40.217C10.9977 38.9365 11.125 38.7674 11.125 38.3511C11.125 37.7989 10.6726 37.3752 10.0829 37.3752C9.761 37.3752 9.473 37.6017 8.28725 38.7875ZM34.3845 38.424C33.4094 39.8411 32.6976 41.759 32.5459 43.3772C32.4715 44.1705 32.4785 44.1965 32.8124 44.3751C33.4079 44.6939 34.1156 45.6172 34.3302 46.3554C34.6817 47.5642 34.4304 48.935 33.7136 49.719L33.4564 50.0002L33.7205 50.2815C34.5663 51.1825 34.7466 52.7911 34.1445 54.0639C33.5225 55.3785 32.5774 56.0119 31.1074 56.0991L30.1523 56.1557L30.1034 57.4217C30.0605 58.5352 30.0105 58.7684 29.6877 59.3572C29.2317 60.1894 28.6498 60.68 27.7115 61.0234C26.8608 61.3346 26.9164 61.4059 28.2412 61.7025C29.4486 61.9727 31.1924 61.8744 33.0625 61.4307C36.0349 60.7254 39.6483 60.2532 42.1116 60.2484C43.4334 60.2456 43.5225 60.1434 42.6979 59.5755C41.7898 58.95 40.915 57.9974 40.6046 57.2959C40.1179 56.1955 40.306 55.1516 41.1855 54.0719C42.2998 52.7037 42.2901 52.5475 41.0091 51.2169C39.7966 49.9575 39.6187 49.731 39.2154 48.9324C38.6365 47.7862 38.4476 46.9235 38.4501 45.4377C38.4514 44.6815 38.5231 43.8177 38.6096 43.5182L38.7668 42.9737L36.8521 40.4307C35.7991 39.0321 34.898 37.8849 34.8498 37.8815C34.8015 37.878 34.5921 38.1222 34.3845 38.424ZM17.1294 46.0385C16.2999 46.3242 15.9038 47.3347 16.3118 48.1239C16.7183 48.91 16.3477 48.8752 24.3307 48.8752H31.6057L31.9904 48.4906C32.321 48.16 32.3749 48.0152 32.3744 47.4594C32.3736 46.6404 32.0263 46.162 31.3125 45.9969C30.5374 45.8176 17.6611 45.8554 17.1294 46.0385ZM17 51.2192C16.0987 51.6694 15.8856 52.8126 16.5572 53.5935L16.8533 53.9377L24.081 53.972C29.3665 53.9971 31.4031 53.9671 31.6602 53.8606C32.1116 53.6736 32.375 53.1579 32.375 52.4609C32.375 51.7714 32.0344 51.3062 31.4006 51.1302C31.1096 51.0495 28.4288 51.0015 24.1875 51.0011C18.0107 51.0006 17.4004 51.0192 17 51.2192ZM20.5 57.0126C20.5 58.0442 20.718 58.6036 21.24 58.912C21.5511 59.0957 21.9849 59.1252 24.3755 59.1252H27.15L27.575 58.7002C27.9925 58.2827 28 58.2561 28 57.2002V56.1252H24.25H20.5V57.0126Z" fill="#EC3237"/>
</g>
<defs>
<clipPath id="clip0_170_1148">
<rect width="64" height="64" fill="white"/>
</clipPath>
</defs>
</svg>
