<svg width="30" height="31" viewBox="0 0 30 31" fill="none" xmlns="http://www.w3.org/2000/svg">
<path d="M26.25 20.8922V25.3123C26.25 25.9686 25.7426 26.5131 25.0881 26.5593C24.5414 26.5979 24.0954 26.6172 23.75 26.6172C12.7042 26.6172 3.75 17.6629 3.75 6.61719C3.75 6.27183 3.76931 5.82578 3.80794 5.27906C3.85421 4.62454 4.39867 4.11719 5.05482 4.11719H9.47513C9.79598 4.11719 10.0647 4.36021 10.0969 4.67944C10.1258 4.96603 10.1527 5.19611 10.1776 5.36971C10.4304 7.13559 10.9469 8.81639 11.6859 10.371C11.8045 10.6205 11.7271 10.9192 11.5023 11.0798L8.80444 13.0069C10.4469 16.8436 13.5236 19.9203 17.3602 21.5628L19.2839 18.8696C19.4465 18.6421 19.7487 18.5638 20.0012 18.6837C21.5557 19.4221 23.2364 19.9379 25.002 20.1902C25.1745 20.2149 25.4031 20.2416 25.6877 20.2703C26.007 20.3026 26.25 20.5713 26.25 20.8922Z" fill="white"/>
</svg>
