<svg width="30" height="31" viewBox="0 0 30 31" fill="none" xmlns="http://www.w3.org/2000/svg">
<g clip-path="url(#clip0_170_1703)">
<path d="M0 9.43016C0 7.66266 0.705 5.98141 1.99125 4.69516C4.8475 1.83891 9.92375 0.410156 15 0.410156C20.0762 0.410156 25.1525 1.83891 28.0087 4.69641C29.2937 5.98141 30.0013 7.66391 30 9.43141C30 11.1364 29.0725 12.6052 27.7063 13.4189L24.475 8.83391C23.745 7.79891 22.73 6.99141 21.54 6.55516C20.0163 5.99641 17.7025 5.36766 15 5.36766C12.2975 5.36766 9.98375 5.99641 8.46 6.55516C7.27 6.99141 6.255 7.79766 5.525 8.83391L2.29375 13.4189C0.9275 12.6052 0 11.1352 0 9.43016ZM18.75 19.1177C18.75 21.1852 17.0675 22.8677 15 22.8677C12.9325 22.8677 11.25 21.1852 11.25 19.1177C11.25 17.0502 12.9325 15.3677 15 15.3677C17.0675 15.3677 18.75 17.0502 18.75 19.1177ZM29.9975 25.6139C29.9487 28.2777 27.6775 30.3677 25.0137 30.3677H4.98625C2.36875 30.3677 0.05 28.2314 0.0025 25.6139C-0.03625 23.5102 0.4175 21.4089 1.31125 19.5064C1.505 19.0952 1.745 18.7064 2 18.3302L7.14625 10.7114C7.755 9.81141 8.63125 9.13266 9.66 8.78141C10.9638 8.33516 12.8425 7.86766 15 7.86766C17.1463 7.86766 19.0312 8.33766 20.34 8.78516C21.3687 9.13766 22.2487 9.81516 22.8575 10.7164L28.3825 18.8964C29.48 20.9539 30.04 23.2827 29.9975 25.6139ZM21.25 19.1177C21.25 15.6714 18.4462 12.8677 15 12.8677C11.5538 12.8677 8.75 15.6714 8.75 19.1177C8.75 22.5639 11.5538 25.3677 15 25.3677C18.4462 25.3677 21.25 22.5639 21.25 19.1177Z" fill="white"/>
</g>
<defs>
<clipPath id="clip0_170_1703">
<rect width="30" height="30" fill="white" transform="translate(0 0.367188)"/>
</clipPath>
</defs>
</svg>
